<svg width="39" height="27" viewBox="0 0 39 27" fill="none" xmlns="http://www.w3.org/2000/svg">
  <path fill-rule="evenodd" clip-rule="evenodd" d="M29.9375 26.3675V20.3675H33.9375V21.1954H30.9371V22.9392H33.9375V23.7958H30.9371V25.4946H33.9375V26.3675H29.9375Z" fill="#FFFFFE"/>
  <path fill-rule="evenodd" clip-rule="evenodd" d="M33.9375 26.3675L35.9603 23.2281L34.1719 20.3675H35.2368L36.1352 21.8347C36.1831 21.9113 36.2729 22.0697 36.4035 22.3102L36.4675 22.429C36.5129 22.3443 36.5633 22.2542 36.6188 22.1585C36.6737 22.0629 36.7367 21.9577 36.8078 21.843L37.7577 20.3675H38.7968L36.9742 23.2118L38.9375 26.3675H37.8172L36.774 24.6667L36.7569 24.638C36.6435 24.4331 36.5381 24.2405 36.4418 24.0602C36.3934 24.153 36.3409 24.2494 36.284 24.349C36.2275 24.4488 36.1665 24.5506 36.101 24.6545L35.0109 26.3675H33.9375Z" fill="#FFFFFE"/>
  <path fill-rule="evenodd" clip-rule="evenodd" d="M2.74021 23.7204L3.43525 21.665L4.11718 23.7204H2.74021ZM3.83909 20.3675H3.03587L0.9375 26.3675H1.83989L2.43492 24.6485H4.42534L5.00576 26.3675H5.9375L3.83909 20.3675Z" fill="#FFFFFE"/>
  <path fill-rule="evenodd" clip-rule="evenodd" d="M13.8578 24.5923C13.7242 24.8635 13.5362 25.0756 13.2986 25.2229C13.0613 25.37 12.7917 25.4446 12.4974 25.4446C12.0586 25.4446 11.6867 25.2938 11.3924 24.9966C11.0974 24.6985 10.9478 24.3201 10.9478 23.8717C10.9478 23.4287 11.0954 23.0515 11.3863 22.7507C11.6762 22.4509 12.0336 22.2988 12.4489 22.2988C12.7728 22.2988 13.0547 22.3673 13.2865 22.5023C13.5184 22.6374 13.7109 22.8449 13.8586 23.119L13.8733 23.1463H14.9366L14.9135 23.08C14.7256 22.5414 14.4194 22.1169 14.0035 21.8182C13.5869 21.5191 13.0891 21.3675 12.5239 21.3675C12.162 21.3675 11.8176 21.4357 11.5005 21.57C11.1833 21.7043 10.8938 21.904 10.6401 22.1637C10.4101 22.4006 10.2334 22.6662 10.1153 22.9531C9.99737 23.2403 9.9375 23.5522 9.9375 23.8801C9.9375 24.2001 10.0033 24.5178 10.1333 24.8245C10.2632 25.1313 10.4458 25.404 10.6759 25.6351C10.9183 25.878 11.1929 26.0628 11.4924 26.1843C11.7919 26.3058 12.13 26.3675 12.4974 26.3675C13.0803 26.3675 13.5825 26.2187 13.9903 25.9252C14.3971 25.6323 14.7076 25.1966 14.9133 24.6303L14.9375 24.5634H13.872L13.8578 24.5923Z" fill="#FFFFFE"/>
  <path fill-rule="evenodd" clip-rule="evenodd" d="M15.9854 23.3829C16.0891 23.0536 16.2674 22.7883 16.5162 22.5935C16.7802 22.3868 17.0968 22.282 17.457 22.282C17.8082 22.282 18.1137 22.3839 18.3648 22.5847C18.6022 22.7746 18.7757 23.0429 18.8812 23.3829H15.9854ZM19.5232 22.4692C19.2867 22.1239 18.9822 21.851 18.6184 21.6581C18.2543 21.4652 17.8548 21.3675 17.4311 21.3675C17.0747 21.3675 16.741 21.4334 16.4394 21.5636C16.1379 21.6938 15.8636 21.8901 15.6244 22.1468C15.3996 22.3834 15.2271 22.6497 15.1116 22.9384C14.996 23.2268 14.9375 23.5408 14.9375 23.8717C14.9375 24.1917 15.002 24.5094 15.1289 24.816C15.2559 25.1225 15.4342 25.3953 15.6593 25.6266C15.8989 25.8723 16.1704 26.0592 16.466 26.1821C16.7616 26.3051 17.0921 26.3675 17.4482 26.3675C17.9774 26.3675 18.4483 26.2268 18.8481 25.9492C19.2468 25.6723 19.5612 25.2677 19.7826 24.7469L19.8122 24.6772H18.7425L18.7278 24.703C18.595 24.9356 18.4149 25.1179 18.1924 25.2448C17.97 25.3718 17.7197 25.4361 17.4482 25.4361C17.0686 25.4361 16.7367 25.3189 16.4617 25.0878C16.2007 24.8688 16.0299 24.5818 15.9535 24.2341H19.9375V24.053C19.9375 23.7274 19.9035 23.433 19.8367 23.1782C19.7692 22.9223 19.664 22.684 19.5232 22.4692Z" fill="#FFFFFE"/>
  <path fill-rule="evenodd" clip-rule="evenodd" d="M27.5601 25.0804C27.2537 25.3713 26.8951 25.5187 26.4955 25.5187C26.0553 25.5187 25.6781 25.3719 25.3747 25.0825C25.0708 24.7927 24.9163 24.4283 24.9163 23.9995C24.9163 23.592 25.0703 23.2425 25.3742 22.9607C25.6781 22.6789 26.0496 22.536 26.4783 22.536C26.8951 22.536 27.2604 22.686 27.5643 22.9818C27.8682 23.2782 28.0227 23.6394 28.0227 24.0553C28.0227 24.4446 27.8671 24.7895 27.5601 25.0804ZM27.9884 20.3675V22.2523C27.7797 22.0723 27.5513 21.9333 27.3088 21.8384C27.031 21.7301 26.7255 21.6752 26.4013 21.6752C26.0366 21.6752 25.7067 21.7321 25.421 21.8444C25.1348 21.9568 24.8679 22.1329 24.6275 22.3676C24.4074 22.5811 24.2351 22.8318 24.1165 23.1128C23.9973 23.3935 23.9375 23.6945 23.9375 24.0074C23.9375 24.6793 24.1784 25.2466 24.6535 25.6935C25.1291 26.1408 25.7343 26.3675 26.4523 26.3675C26.7604 26.3675 27.0544 26.3119 27.3265 26.2021C27.5622 26.1068 27.7818 25.9704 27.9801 25.7961V26.2678H28.9375V20.3675H27.9884Z" fill="#FFFFFE"/>
  <path fill-rule="evenodd" clip-rule="evenodd" d="M8.00893 22.1865C8.04046 22.184 8.07128 22.1807 8.10491 22.1807C8.21257 22.1807 8.3119 22.1966 8.40464 22.2249C8.61233 22.2986 8.78001 22.4529 8.86437 22.6505H9.9375C9.88499 22.3337 9.70872 22.0486 9.44933 21.828C9.35129 21.7298 9.23455 21.6463 9.09829 21.578C8.93326 21.4954 8.74735 21.4387 8.54079 21.4079C8.4061 21.3824 8.26637 21.3675 8.12205 21.3675C7.81313 21.3675 7.5207 21.423 7.26429 21.5248C7.24044 21.5337 7.21757 21.5438 7.19443 21.5536C7.18199 21.5591 7.16934 21.5643 7.15712 21.57C7.03697 21.6242 6.92536 21.6885 6.82484 21.7659C6.49115 22.023 6.32434 22.358 6.32434 22.7712C6.32434 23.0737 6.42573 23.3307 6.62866 23.5421C6.83144 23.7537 7.18772 23.9618 7.69747 24.1668C7.78799 24.2059 7.91706 24.2546 8.08479 24.3131C8.58102 24.4921 8.82927 24.7068 8.82927 24.9573C8.82927 25.146 8.75963 25.2949 8.62055 25.4038C8.48131 25.5128 8.28935 25.5673 8.04451 25.5673C7.75949 25.5673 7.52649 25.5071 7.34535 25.3867C7.33978 25.383 7.33415 25.3806 7.32858 25.3775C7.15614 25.2547 7.02469 25.0778 6.97316 24.861L5.9375 24.8631C5.94907 25.0692 6.01677 25.2672 6.12773 25.4484C6.29611 25.7411 6.51733 25.9631 6.79218 26.1137C7.08461 26.2742 7.44873 26.3575 7.88289 26.3659C7.89148 26.3662 7.89987 26.3673 7.90852 26.3675V26.3664C7.92382 26.3667 7.93853 26.3675 7.95405 26.3675C8.56096 26.3675 9.03713 26.2366 9.38244 25.9747C9.7278 25.7129 9.90057 25.351 9.90057 24.889C9.90057 24.5702 9.80578 24.3042 9.61636 24.0912C9.42683 23.878 9.11256 23.687 8.67327 23.5178C8.57605 23.4787 8.43849 23.4283 8.2608 23.3665C7.69747 23.1681 7.41586 22.9485 7.41586 22.7077C7.41586 22.672 7.42013 22.6384 7.42646 22.6058C7.53779 22.3869 7.75181 22.2261 8.00893 22.1865Z" fill="#FFFFFE"/>
  <path fill-rule="evenodd" clip-rule="evenodd" d="M21.9376 21.3675C20.8347 21.3675 19.9375 22.3058 19.9375 23.4591V26.3675H20.8587V23.5443C20.8587 22.9222 21.3428 22.4161 21.9376 22.4161C22.5324 22.4161 23.0165 22.9222 23.0165 23.5443V26.3675H23.9375V23.4591C23.9375 22.3058 23.0402 21.3675 21.9376 21.3675Z" fill="#FFFFFE"/>
  <path fill-rule="evenodd" clip-rule="evenodd" d="M29.9767 0.487702C29.3932 0.243938 28.7276 0.377584 28.2813 0.828002L22.4532 6.7105V9.9081L28.6946 3.61069V14.1049H18.3167L17.117 12.1462L12.9375 16.3675H29.3812C30.2394 16.3675 30.9375 15.6632 30.9375 14.7975V1.93807C30.9375 1.30084 30.5602 0.731566 29.9767 0.487702Z" fill="#FFFFFE"/>
  <path fill-rule="evenodd" clip-rule="evenodd" d="M14.2314 14.1869H12.5227L19.624 7.49321V13.7453H21.9375V5.88122C21.9375 5.26709 21.5485 4.71845 20.9465 4.48338C20.3444 4.24835 19.6578 4.3773 19.1974 4.81139L6.9375 16.3675H11.918L14.2314 14.1869Z" fill="#FFFFFE"/>
  <path fill-rule="evenodd" clip-rule="evenodd" d="M19.6157 14.3693V14.3675H15.1634L12.9375 16.3675H20.3933C21.2446 16.3675 21.9375 15.7449 21.9375 14.9798V14.3693H19.6157Z" fill="#FFFFFE"/>
</svg>
