<?xml version="1.0" encoding="UTF-8" standalone="no"?>
<!DOCTYPE svg PUBLIC "-//W3C//DTD SVG 1.1//EN" "http://www.w3.org/Graphics/SVG/1.1/DTD/svg11.dtd">
<svg width="100%" height="100%" viewBox="0 0 259 259" version="1.1" xmlns="http://www.w3.org/2000/svg" xmlns:xlink="http://www.w3.org/1999/xlink" xml:space="preserve" xmlns:serif="http://www.serif.com/" style="fill-rule:evenodd;clip-rule:evenodd;stroke-linejoin:round;stroke-miterlimit:2;">
    <g transform="matrix(1,0,0,1,-370.667,-38106.3)">
        <g transform="matrix(2.66667,0,0,2.66667,0,34770)">
            <clipPath id="_clip1">
                <rect x="139" y="1251.1" width="96.904" height="96.904"/>
            </clipPath>
            <g clip-path="url(#_clip1)">
                <g transform="matrix(1,0,0,1,167.803,1323.61)">
                    <clipPath id="_clip2">
                        <path d="M25.749,-40.803C22.749,-40.803 19.813,-39.575 17.19,-37.211C15.964,-36.104 14.819,-34.771 13.766,-33.244C13.58,-38.963 13.251,-45.078 12.693,-51.295L5,-51.295C6.646,-33.776 6.446,-18.483 6.161,-5.07L6.162,-5.07C6.162,-5.047 6.161,-5.023 6.161,-5L13.816,-5C14.043,-18.436 17.388,-27.057 22.302,-31.486C23.631,-32.684 24.916,-33.221 26.126,-33.092C32.194,-32.429 31.224,-13.409 30.769,-5L38.436,-5C38.771,-11.221 39.137,-18.797 38.245,-25.375C36.956,-34.891 33.157,-40.06 26.953,-40.738C26.551,-40.781 26.149,-40.803 25.749,-40.803Z"/>
                    </clipPath>
                    <g clip-path="url(#_clip2)">
                        <rect x="0" y="-56.296" width="43.803" height="56.296" style="fill:rgb(1,13,99);"/>
                    </g>
                </g>
                <g transform="matrix(1,0,0,1,134,1353)">
                    <g>
                        <clipPath id="_clip3">
                            <path d="M53.452,-101.904C26.693,-101.904 5,-80.212 5,-53.452C5,-26.693 26.693,-5 53.452,-5C80.211,-5 101.904,-26.693 101.904,-53.452C101.904,-80.212 80.211,-101.904 53.452,-101.904ZM53.452,-93.874C75.74,-93.874 93.874,-75.74 93.874,-53.452C93.874,-31.163 75.74,-13.03 53.452,-13.03C31.163,-13.03 13.03,-31.163 13.03,-53.452C13.03,-75.74 31.163,-93.874 53.452,-93.874Z"/>
                        </clipPath>
                        <g clip-path="url(#_clip3)">
                            <rect x="5" y="-102" width="97" height="97" style="fill:rgb(1,13,99);"/>
                        </g>
                    </g>
                </g>
            </g>
        </g>
    </g>
</svg>
