<svg width="34" height="39" viewBox="0 0 34 39" fill="none" xmlns="http://www.w3.org/2000/svg">
  <path fill-rule="evenodd" clip-rule="evenodd" d="M1.45356 0.985177C5.78732 6.21111 10.546 12.7765 11.3155 13.8383C11.3566 13.895 11.3864 13.9359 11.4041 13.9602C11.8144 14.5236 12.1531 14.9424 12.4102 15.2604H12.4104C12.9813 15.9665 13.1507 16.1761 12.81 16.3686C12.5351 16.5238 12.2517 16.5748 11.9687 16.5748C11.6488 16.5748 11.2883 16.4217 11.0258 16.1743C10.8402 15.9995 9.57076 14.1677 7.84188 11.5028C6.51911 9.46367 5.41213 7.77206 5.38194 7.74379C5.31218 7.6782 5.31326 7.68051 7.70705 11.9355C9.21002 14.6073 10.2382 16.5819 10.2382 16.7081C10.2382 16.9652 10.1675 17.1001 9.84854 17.4538C9.31665 18.0433 9.07899 18.7057 8.90729 20.0764C8.71499 21.613 8.17388 22.6986 6.67454 24.5563C5.79672 25.6438 5.65322 25.8431 5.43164 26.2815C5.15278 26.8334 5.07596 27.1426 5.04506 27.8396C5.01217 28.5766 5.07615 29.0526 5.30278 29.7571C5.50123 30.374 5.70834 30.7814 6.23771 31.5961C6.6946 32.299 6.95756 32.8214 6.95756 33.0259C6.95756 33.1885 6.98883 33.1887 7.69675 33.03C9.39111 32.6497 10.7668 31.9813 11.5407 31.162C12.0195 30.6548 12.1319 30.3749 12.1355 29.68C12.1379 29.2254 12.1218 29.1303 11.9982 28.8688C11.7968 28.4431 11.4305 28.0893 10.6226 27.5408C9.56425 26.8219 9.11224 26.2432 8.98736 25.4474C8.88488 24.7945 9.0038 24.3337 9.58919 23.1146C10.1954 21.8526 10.3454 21.3149 10.4471 20.0428C10.5127 19.221 10.6035 18.8969 10.8411 18.6369C11.0891 18.3656 11.3121 18.2737 11.9255 18.1903C12.9257 18.0547 13.5624 17.7976 14.086 17.3184C14.54 16.9026 14.7299 16.5023 14.7592 15.8991L14.7812 15.4421L14.5275 15.1482C13.6085 14.0838 0.83817 0.148438 0.781601 0.148438C0.769492 0.148438 1.07186 0.525121 1.45356 0.985177Z" fill="white"/>
  <path fill-rule="evenodd" clip-rule="evenodd" d="M7.69348 28.6814C7.86751 28.2069 7.77512 27.5977 7.48386 27.2999C7.20866 27.0186 6.78125 27.1509 6.78125 27.5177C6.78125 27.6296 6.82139 27.7109 6.91211 27.7829C7.06478 27.9037 7.07584 28.0395 6.95573 28.3171C6.83411 28.5984 6.8438 28.8455 6.98345 29.0131C7.20836 29.284 7.52673 29.1353 7.69348 28.6814Z" fill="white"/>
  <path fill-rule="evenodd" clip-rule="evenodd" d="M14.1274 9.26204C13.7257 9.20167 13.7089 9.19452 13.8978 9.16629C14.26 9.11221 15.115 9.18585 15.7044 9.32191C17.0801 9.63927 18.3319 10.4521 19.668 11.8959L20.0231 12.2794L20.5308 12.2001C22.6703 11.8664 24.8467 12.1317 26.6671 12.9476C27.1681 13.1723 27.9577 13.6191 28.0563 13.7339C28.0876 13.7706 28.1455 14.0062 28.1845 14.2575C28.3196 15.1273 28.2521 15.794 27.9779 16.2918C27.8288 16.5629 27.8205 16.6488 27.9207 16.8806C28.0007 17.0657 28.2238 17.2026 28.4449 17.2024C28.8974 17.2017 29.3842 16.4922 29.6099 15.5047L29.6993 15.1125L29.8769 15.3076C30.8506 16.3782 31.6157 17.8383 31.7471 18.8775L31.7812 19.1484L31.6175 18.9022C31.3358 18.4783 31.0529 18.1897 30.6904 17.957C30.0371 17.5375 29.346 17.3948 27.5165 17.3012C25.8641 17.2167 24.9292 17.0798 24.0019 16.7864C22.424 16.2872 21.6288 15.6224 19.7545 13.2362C18.922 12.1765 18.4075 11.5901 17.8959 11.1179C16.7328 10.0449 15.5902 9.48212 14.1274 9.26204Z" fill="white"/>
  <path fill-rule="evenodd" clip-rule="evenodd" d="M28.6139 11.1381C28.6593 10.3999 28.7675 9.91302 28.9849 9.46841C29.0709 9.29252 29.1515 9.14844 29.1641 9.14844C29.1764 9.14844 29.139 9.2782 29.0807 9.43695C28.923 9.86847 28.8967 10.4588 29.0057 11.1456C29.1438 12.0169 29.2225 12.1426 30.2175 13.0838C30.6839 13.5252 31.2267 14.0821 31.4234 14.3211L31.7812 14.7556L31.4234 14.4452C30.9859 14.0653 29.9798 13.3244 29.7576 13.2185C29.6085 13.1474 29.5863 13.1487 29.4945 13.2334C29.4098 13.3113 29.3919 13.4287 29.3801 13.9831C29.3618 14.847 29.2347 15.4018 28.9276 15.9563C28.7615 16.2562 28.7353 16.1922 28.8855 15.8536C28.9978 15.6008 29.0092 15.4898 29.0084 14.6533C29.0067 12.9726 28.791 12.5687 27.527 11.8766C27.207 11.7012 26.6792 11.4482 26.3546 11.3146C26.0301 11.1807 25.7724 11.0642 25.7815 11.0556C25.8174 11.0227 27.0503 11.3556 27.5463 11.5324C28.2843 11.7951 28.406 11.8292 28.4957 11.7975C28.5557 11.7761 28.5848 11.6142 28.6139 11.1381Z" fill="white"/>
  <path fill-rule="evenodd" clip-rule="evenodd" d="M13.7958 10.537C13.6882 11.7927 14.1852 13.4726 14.9886 14.5683C15.6115 15.4177 16.577 16.0776 17.2896 16.1414C17.7563 16.1831 17.8966 16.0384 17.6853 15.733C17.3924 15.309 17.0318 14.6559 16.9364 14.3764C16.8772 14.2029 16.7483 13.6899 16.6502 13.2365C16.3151 11.689 15.9857 11.0864 15.2247 10.6287C14.9475 10.4617 14.3553 10.2434 14.012 10.1815L13.829 10.1484L13.7958 10.537Z" fill="white"/>
  <path fill-rule="evenodd" clip-rule="evenodd" d="M27.1684 22.2259C23.1845 20.5942 21.7812 19.1778 21.7812 16.7879C21.7812 16.4363 21.7933 16.1484 21.8077 16.1484C21.8223 16.1484 21.9764 16.2646 22.1502 16.4065C22.9581 17.0656 23.8627 17.3473 26.3672 17.7187C27.8408 17.9377 28.6701 18.1141 29.4352 18.3725C31.8668 19.1927 33.3712 20.8574 33.73 23.1252C33.8342 23.784 33.7731 25.0196 33.6041 25.671C33.4707 26.1852 33.0634 27.1122 32.9555 27.1479C32.9255 27.1577 32.896 27.041 32.8884 26.8824C32.8475 26.0307 32.4245 25.2018 31.7142 24.5809C30.9066 23.8748 29.8214 23.3127 27.1684 22.2259Z" fill="white"/>
  <path fill-rule="evenodd" clip-rule="evenodd" d="M23.9213 22.4528C23.9761 22.6202 24.061 23.0016 24.1096 23.3002C24.4226 25.209 23.4455 26.7514 21.5446 27.349C21.3435 27.4122 20.5509 27.5714 19.7832 27.7024C18.2295 27.9679 17.5362 28.1556 16.8394 28.4997C16.3455 28.7439 15.7472 29.1094 15.7828 29.1457C15.7942 29.1576 15.9069 29.1298 16.0332 29.0843C16.9118 28.768 17.8895 28.6044 19.3749 28.525C19.9644 28.4937 20.6351 28.4437 20.865 28.4139C22.1884 28.2431 23.1058 27.8306 23.8191 27.0862C24.2158 26.6718 24.4526 26.286 24.6433 25.7418C24.7641 25.3966 24.7803 25.2682 24.7812 24.6565C24.7823 24.0333 24.7676 23.9193 24.6366 23.5359C24.4651 23.0333 24.263 22.6562 24.0067 22.3612L23.8215 22.1484L23.9213 22.4528Z" fill="white"/>
  <path fill-rule="evenodd" clip-rule="evenodd" d="M26.3055 26.4627C25.766 25.3728 25.642 24.3207 25.9376 23.3393C25.9693 23.2343 26.02 23.1484 26.0508 23.1484C26.0815 23.1484 26.2085 23.2132 26.3336 23.2922C26.5822 23.4495 27.0809 23.7146 28.4093 24.3951C30.0674 25.2444 31.0125 25.902 31.6554 26.6533C32.2181 27.3113 32.5666 28.0609 32.734 28.9747C32.8291 29.4924 32.7734 30.7379 32.6321 31.2591C32.1864 32.9029 31.1504 34.1937 29.6731 34.9471C29.4564 35.0573 29.2621 35.1481 29.2411 35.1484C29.22 35.1488 29.2989 34.9604 29.4162 34.7298C29.9133 33.7532 29.9699 32.8035 29.5944 31.7467C29.364 31.0993 28.8951 30.3096 27.9476 28.9749C26.8463 27.4231 26.5765 27.0099 26.3055 26.4627Z" fill="white"/>
  <path fill-rule="evenodd" clip-rule="evenodd" d="M16.9832 30.2118C15.3791 30.4768 13.618 31.3402 12.2027 32.5558L11.7812 32.9177L12.1517 32.9766C14.0841 33.2834 14.6045 33.5556 15.945 34.9601C16.7163 35.7682 16.9768 35.9483 17.6166 36.1143C18.5564 36.3582 19.4828 35.9099 19.8004 35.0572C19.9423 34.6763 19.9235 34.0453 19.7607 33.7285C19.3731 32.9743 18.2445 32.7303 17.6987 33.2829C17.2441 33.7431 17.3765 34.4365 17.942 34.5557C18.0715 34.5832 18.0676 34.5773 17.909 34.5043C17.6616 34.3904 17.554 34.2327 17.5526 33.9816C17.5494 33.3928 18.2119 33.0623 18.8281 33.345C19.2793 33.5522 19.4585 33.8227 19.4585 34.2973C19.4585 35.0276 18.8473 35.578 18.1359 35.488C17.7557 35.4398 17.2907 35.1925 17.0415 34.9058C16.4141 34.1843 16.6583 33.0457 17.5344 32.6088C18.2013 32.2763 19.0876 32.3582 19.775 32.816C20.5648 33.3421 20.9006 33.8229 21.5806 35.4009C21.8021 35.9147 22.0873 36.4931 22.214 36.6862C22.8582 37.6673 23.6304 38.1484 24.5603 38.1484C25.073 38.1484 25.4589 38.0533 25.9443 37.8067C26.3051 37.6234 26.8162 37.2752 26.7794 37.2379C26.7691 37.2275 26.6195 37.2747 26.4469 37.343C25.4317 37.7458 24.3996 37.7183 23.8002 37.272C23.4227 36.9909 23.118 36.4314 22.9616 35.7313C22.9346 35.6101 22.8451 35.075 22.7629 34.5421C22.5546 33.1915 22.3546 32.5843 21.8879 31.8878C21.4103 31.1748 20.4926 30.5766 19.4665 30.3094C18.8262 30.1427 17.6745 30.0974 16.9832 30.2118Z" fill="white"/>
  <path fill-rule="evenodd" clip-rule="evenodd" d="M14.8216 19.5391C14.9537 18.9382 15.3802 18.3651 15.8189 18.1989C16.0979 18.0934 16.6747 18.1608 16.9458 18.3306C17.4713 18.66 17.8527 19.4099 17.7699 19.9513C17.6691 20.6114 16.8004 21.1396 15.8011 21.1483C15.2909 21.1526 15.1024 21.0681 14.9074 20.7474C14.7868 20.5486 14.7411 19.9058 14.8216 19.5391Z" fill="white"/>
  <path fill-rule="evenodd" clip-rule="evenodd" d="M16.4412 19.276C16.788 19.4295 16.8772 19.6564 16.6733 19.8664C16.5329 20.011 16.0977 20.1484 15.7799 20.1484C15.3023 20.1484 14.7812 19.9028 14.7812 19.6778C14.7812 19.2257 15.7804 18.9837 16.4412 19.276Z" fill="white"/>
</svg>
