<?xml version="1.0" encoding="utf-8"?>
<!-- Generator: Adobe Illustrator 25.0.1, SVG Export Plug-In . SVG Version: 6.00 Build 0)  -->
<svg version="1.1" id="Ebene_1" xmlns="http://www.w3.org/2000/svg" xmlns:xlink="http://www.w3.org/1999/xlink" x="0px" y="0px"
	 viewBox="0 0 897 178" style="enable-background:new 0 0 897 178;" xml:space="preserve">
<style type="text/css">
	.st0{fill:#9D9D9D;}
	.st1{fill:#C4C4C4;}
	.st2{fill:#414141;}
	.st3{fill:#4B4B4B;}
	.st4{fill:#FFFFFF;}
	.st5{fill-rule:evenodd;clip-rule:evenodd;fill:#414141;}
	.st6{fill:#444444;}
	.st7{fill-rule:evenodd;clip-rule:evenodd;fill:#FFFFFF;}
</style>
<path class="st0" d="M138.7,89.5V53L53.9,0v36.5L138.7,89.5z"/>
<path class="st1" d="M0,70V33.4L53.9,0v36.6L0,70z"/>
<path class="st2" d="M84.7,123.1V86.5L0,33.4V70L84.7,123.1z"/>
<path class="st3" d="M84.7,123.1V86.5l53.9-33.4v36.6L84.7,123.1z"/>
<path class="st2" d="M54,0L0,33.4l84.7,53l54-33.4L54,0z"/>
<path class="st4" d="M55.1,9.8L15.5,34.2L77.7,73l39.6-24.4L55.1,9.8z"/>
<path class="st5" d="M19.5,30.6c0.5-0.8,1.5-1,2.2-0.5l8.1,5c0.8,0.5,1,1.5,0.5,2.2c-0.5,0.8-1.5,1-2.2,0.5l-8.1-5
	C19.2,32.3,19,31.3,19.5,30.6z"/>
<path class="st5" d="M24.5,27.6c0.5-0.8,1.5-1,2.2-0.5l8,5c0.8,0.5,1,1.5,0.5,2.2c-0.5,0.8-1.5,1-2.2,0.5l-8-5
	C24.3,29.3,24,28.3,24.5,27.6z"/>
<path class="st5" d="M29.4,24.5c0.5-0.8,1.5-1,2.2-0.5l8.1,5c0.8,0.5,1,1.5,0.5,2.2c-0.5,0.8-1.5,1-2.2,0.5l-8.1-5
	C29.2,26.2,29,25.3,29.4,24.5z"/>
<path class="st5" d="M34.5,21.4c0.5-0.8,1.5-1,2.2-0.5l8,5c0.8,0.5,1,1.5,0.5,2.2c-0.5,0.8-1.5,1-2.2,0.5l-8-5
	C34.2,23.2,34,22.2,34.5,21.4z"/>
<path class="st5" d="M39.4,18.3c0.5-0.8,1.5-1,2.2-0.5l8.1,5c0.8,0.5,1,1.5,0.5,2.2c-0.5,0.8-1.5,1-2.2,0.5l-8.1-5
	C39.2,20.1,38.9,19.1,39.4,18.3z"/>
<path class="st5" d="M49.6,12c0.5-0.8,1.5-1,2.2-0.5l8,5c0.8,0.5,1,1.5,0.5,2.2c-0.5,0.8-1.5,1-2.2,0.5l-8-5
	C49.4,13.8,49.1,12.8,49.6,12z M44.5,15.3c0.5-0.8,1.5-1,2.2-0.5l8,5c0.8,0.5,1,1.5,0.5,2.2c-0.5,0.8-1.5,1-2.2,0.5l-8-5
	C44.2,17,44,16,44.5,15.3z"/>
<path d="M167.5,57.8l40.2,49.7v27.2l-40.2-32.8V57.8z"/>
<path class="st2" d="M102.5,142.2V98.1L26.2,50.3v44.1L102.5,142.2z"/>
<path class="st6" d="M102.5,142.2V98.1l65-40.3v44.1L102.5,142.2z"/>
<path class="st2" d="M167.5,159.7v-27.2l40.2-25v27.2L167.5,159.7z"/>
<path class="st2" d="M167.5,57.8l-65,40.3l65,34.4l40.2-25L167.5,57.8z"/>
<path class="st2" d="M102.5,98.1l65,34.4v27.2l-65-17.5V98.1z"/>
<path class="st2" d="M91.3,10l-65,40.3L102.5,98l65-40.3L91.3,10z"/>
<path class="st4" d="M91.6,29.7L61.8,48.1l16,10c8.5,1.8,17.6-2,21.9-4.7s8.9-7.7,7.9-13.8L91.6,29.7z"/>
<path class="st4" d="M123.8,49.7L94,68.2l16,10l29.8-18.5L123.8,49.7z"/>
<g>
	<path class="st7" d="M174.5,66.1l-61,37.8l-4.9-2.6l63.3-39.5L174.5,66.1z"/>
	<path class="st7" d="M183.9,73.7L125.1,110l-4.9-2.6l61.1-38L183.9,73.7z"/>
	<path class="st7" d="M191.7,81.9l-55.2,34.2l-4.9-2.6l57.5-35.8L191.7,81.9z"/>
	<path class="st7" d="M198,90.7l-50.4,31.2l-5-2.7l52.9-32.8L198,90.7z"/>
	<path class="st7" d="M208.9,98.3l-51.3,31.8l-2.6-4.2l51.3-31.8L208.9,98.3z"/>
	<path class="st7" d="M155.1,156.3v-30.4l5,2.7v29.1L155.1,156.3z"/>
	<path class="st7" d="M142.5,155.7v-36.5l5,1.8v36.2L142.5,155.7z"/>
	<path class="st7" d="M131.5,149.9l0.1-36.4l4.9,2.6l0.1,35.3L131.5,149.9z"/>
	<path class="st7" d="M120.3,147.4v-39.9l4.9,2.6v38.7L120.3,147.4z"/>
	<path class="st7" d="M108.6,145v-43.7l4.9,2.6v42.5L108.6,145z"/>
</g>
<path class="st2" d="M164.9,65.7l-51.3,31.8l69,25.6l13.4-8.3L164.9,65.7z"/>
<path class="st2" d="M199.3,120.3l30.8,19.2l-21.4,28.8l-35.5-22.6L199.3,120.3z"/>
<path class="st2" d="M208.1,158.3c0-3.9,2-7.5,5.3-9.6l14.9-9.3c1-0.6,2.3,0.1,2.3,1.3v11.4c0,2.3-1.2,4.4-3.1,5.7l-17.1,10.6
	c-1,0.6-2.3-0.1-2.3-1.3L208.1,158.3L208.1,158.3z"/>
<path class="st5" d="M771.5,63.2c0.8-3.4,1.7-6.5,2.9-9.5c3.3-8,7.8-14.7,13.4-20c5.7-5.5,12.4-9.6,20-12.4c7.7-2.8,16.1-4.2,25-4.2
	s17.2,1.4,24.8,4.2c7.7,2.8,14.5,6.9,20.2,12.4c5.7,5.3,10.2,12,13.4,20c1.3,3,2.3,6.2,3,9.5h-37c-3.7-11-14.1-18.9-26.3-18.9
	s-22.6,7.9-26.3,18.9C804.6,63.2,771.5,63.2,771.5,63.2z M753.9,63.2c-0.8-3.7-1.9-7.1-3.2-10.3c-3.3-8-8.1-14.6-14.2-19.8
	c-6-5.3-13.3-9.3-21.8-11.8c-8.4-2.5-17.8-3.8-28.2-3.8c-5.1,0-10.8,0.3-17.2,1c-6.4,0.5-12.5,1.7-18.2,3.6
	c-2.7,0.9-4.8,2.2-6.4,3.8c-1.5,1.5-2.2,3.6-2.2,6.4v31h34.8V46.5c2-0.3,3.9-0.5,5.8-0.6c2-0.1,3.9-0.2,5.8-0.2
	c9.3,0,16.8,3.1,22.4,9.2c2.2,2.3,3.9,5.1,5.2,8.3H753.9z M719.7,81.2h36v0.1c0,10.7-1.6,20-4.8,28.1c-3.2,7.9-7.8,14.6-13.8,20
	c-5.9,5.3-12.9,9.4-21.2,12c-8.3,2.7-17.4,4-27.4,4c-2.3,0-4.9-0.1-7.8-0.2c-2.9-0.1-6-0.4-9.2-0.8c-3.1-0.4-6.2-0.9-9.4-1.6
	c-3.1-0.5-5.9-1.3-8.6-2.4c-7.3-2.8-11-7.7-11-14.6V81.2h34.8v35c1.5,0.3,3.3,0.5,5.4,0.8c2.1,0.1,4.1,0.2,6,0.2
	c4.5,0,8.7-0.7,12.4-2c3.9-1.3,7.1-3.4,9.8-6.2c2.8-2.8,4.9-6.4,6.4-10.8c1.6-4.5,2.4-10,2.4-16.2C719.7,81.7,719.7,81.4,719.7,81.2
	z M568.2,63.2c3.2-13.4,15-23.3,29-23.3c0.2,0,0.4,0,0.6,0c-1.1-3.2-2.1-6.3-3.1-9.1c-1.5-4.1-4.8-7.1-10-9c-5.1-2-10.9-3-17.6-3
	c-4.7,0-9.3,0.6-14,1.8c-4.5,1.2-7.9,2.5-10.2,3.8c-0.9,2.4-2.3,5.9-4,10.4c-1.6,4.5-3.4,9.8-5.4,15.6c-1.4,4.1-2.9,8.3-4.4,12.8
	H568.2z M523.1,81.2h46.2c4.2,11.6,15.2,19.8,28,19.8c6.4,0,12.3-2,17.1-5.5c1.6,5.8,3.2,11.5,4.8,17.3c2.7,9.5,5,17.9,7,25.2
	c-1.6,1.9-4,3.3-7.2,4.4c-3.2,1.2-7,1.8-11.4,1.8c-3.2,0-5.9-0.3-8.2-0.8c-2.1-0.5-3.9-1.3-5.4-2.4c-1.3-1.1-2.5-2.5-3.4-4.2
	c-0.8-1.7-1.5-3.7-2.2-6l-3.6-13.8h-36.2c-1.1,4-2.1,8.1-3.2,12.4c-1.1,4.3-2.1,8.4-3.2,12.4c-1.9,0.7-3.9,1.2-6,1.6
	c-2,0.5-4.5,0.8-7.4,0.8c-6.8,0-11.9-1.1-15.2-3.4c-3.2-2.4-4.8-5.7-4.8-9.8c0-1.9,0.3-3.7,0.8-5.6s1.1-4.1,1.8-6.6
	c0.9-3.6,2.2-8.1,3.8-13.4c1.7-5.3,3.6-11.1,5.6-17.2C521.6,85.8,522.4,83.5,523.1,81.2z M499.2,63.2c1.8-5.9,3.3-11.2,4.4-16
	c1.5-5.6,2.2-9.9,2.2-12.8c0-5.1-1.7-8.7-5.2-10.8c-3.5-2.3-7.7-3.4-12.6-3.4c-3.5,0-6.6,0.4-9.4,1.2c-2.7,0.8-5.2,1.8-7.6,3
	c-3,12.9-6.2,25.8-9.6,38.8C461.4,63.2,499.2,63.2,499.2,63.2z M456.8,81.2h36.5c-0.8,2.3-1.6,4.6-2.5,6.9
	c-2.7,7.6-5.4,14.8-8.2,21.6c-2.7,6.7-5.2,12.6-7.6,17.8c-2.4,5.1-4.3,8.6-5.8,10.6c-1.9,1.6-4.8,3-8.8,4.2
	c-3.9,1.2-8.1,1.8-12.8,1.8c-5.6,0-10.4-0.8-14.4-2.4c-4-1.7-6.7-4.1-8.2-7c-1.5-3.1-3.3-7-5.4-11.8c-2.1-4.9-4.4-10.4-6.8-16.4
	c-2.3-6-4.7-12.4-7.2-19c-0.7-2.1-1.5-4.2-2.2-6.3H439c2.9,9.2,5.8,18.7,8.9,28.6h1.2C451.6,100.8,454.2,91.3,456.8,81.2z
	 M433.5,63.2c-2.7-9.2-5.4-18.6-8-28.4c-1.5-5.6-3.8-9.4-7-11.4c-3.1-2.1-7.1-3.2-12-3.2c-4,0-7.8,0.8-11.4,2.4
	c-3.5,1.5-6.1,3.1-8,5c1.5,5.9,3.2,12.2,5.2,18.8c1.6,5.5,3.4,11.1,5.2,16.8H433.5z M367.2,63.2c-0.8-2.7-1.6-5.5-2.4-8.1
	c-2.8-9.2-5.4-17.3-7.8-24.2c-1.5-4.1-4.8-7.1-10-9c-5.1-2-10.9-3-17.6-3c-4.7,0-9.3,0.6-14,1.8c-4.5,1.2-7.9,2.5-10.2,3.8
	c-0.9,2.4-2.3,5.9-4,10.4c-1,2.8-2.1,5.9-3.2,9.3c0.2,0,0.5,0,0.7,0c12.4,0,23,8,26.9,19.1L367.2,63.2L367.2,63.2z M372.4,81.2
	h-46.6c-3.7,11.5-14.4,19.8-27.1,19.8c-6.8,0-13-2.4-17.8-6.3c-1.2,3.7-2.3,7.2-3.4,10.6c-1.6,5.3-2.9,9.8-3.8,13.4
	c-0.7,2.5-1.3,4.7-1.8,6.6s-0.8,3.7-0.8,5.6c0,4.1,1.6,7.4,4.8,9.8c3.3,2.3,8.4,3.4,15.2,3.4c2.9,0,5.4-0.3,7.4-0.8
	c2.1-0.4,4.1-0.9,6-1.6c1.1-4,2.1-8.1,3.2-12.4c1.1-4.3,2.1-8.4,3.2-12.4h36.2l3.6,13.8c0.7,2.3,1.4,4.3,2.2,6
	c0.9,1.7,2.1,3.1,3.4,4.2c1.5,1.1,3.3,1.9,5.4,2.4c2.3,0.5,5,0.8,8.2,0.8c4.4,0,8.2-0.6,11.4-1.8c3.2-1.1,5.6-2.5,7.2-4.4
	c-2-7.3-4.3-15.8-7-25.2c-2.7-9.6-5.4-19.3-8.2-29.1C372.9,82.9,372.6,82,372.4,81.2z M769.7,81.2h35c3.8,10.9,14.1,18.7,26.2,18.7
	c12.2,0,22.5-7.8,26.2-18.7h39v0.1c0,10.4-1.6,19.7-4.8,27.9c-3.2,8-7.7,14.8-13.4,20.2c-5.6,5.3-12.3,9.4-20,12.2
	s-16.1,4.2-25.2,4.2c-9.1,0-17.5-1.4-25.2-4.2c-7.7-2.9-14.4-7.1-20-12.6s-10-12.2-13.2-20.2s-4.8-17.2-4.8-27.5
	C769.7,81.3,769.7,81.2,769.7,81.2z"/>
</svg>
