<?xml version="1.0" encoding="UTF-8" standalone="no"?>
<!DOCTYPE svg PUBLIC "-//W3C//DTD SVG 1.1//EN" "http://www.w3.org/Graphics/SVG/1.1/DTD/svg11.dtd">
<svg width="100%" height="100%" viewBox="0 0 24 24" version="1.1" xmlns="http://www.w3.org/2000/svg" xmlns:xlink="http://www.w3.org/1999/xlink" xml:space="preserve" xmlns:serif="http://www.serif.com/" style="fill-rule:evenodd;clip-rule:evenodd;stroke-linejoin:round;stroke-miterlimit:2;">
    <g transform="matrix(1,0,0,1,-423.1,-1105.1)">
        <g>
            <g id="Cancel">
                <path d="M435,1114.17L443.484,1105.69C444.266,1104.91 445.527,1104.9 446.314,1105.69C447.095,1106.47 447.099,1107.73 446.312,1108.52L437.828,1117L446.312,1125.48C447.094,1126.27 447.1,1127.53 446.314,1128.31C445.533,1129.1 444.271,1129.1 443.484,1128.31L435,1119.83L426.516,1128.31C425.734,1129.09 424.473,1129.1 423.686,1128.31C422.905,1127.53 422.901,1126.27 423.688,1125.48L432.172,1117L423.688,1108.52C422.906,1107.73 422.9,1106.47 423.686,1105.69C424.467,1104.9 425.729,1104.9 426.516,1105.69L435,1114.17Z" style="fill:rgb(20,35,193);"/>
            </g>
        </g>
    </g>
</svg>
