<svg width="209" height="229" viewBox="0 0 209 229" fill="none"
  xmlns="http://www.w3.org/2000/svg">
  <path fill-rule="evenodd" clip-rule="evenodd" d="M43.5305 144.209L118.259 218.985L192.986 144.209L118.259 69.4343L43.5305 144.209Z" stroke="#000050" stroke-width="11"/>
  <path fill-rule="evenodd" clip-rule="evenodd" d="M69.5516 194.95H174.304L178.975 229H115.089L69.5516 194.95Z" fill="#FFFFA0"/>
  <path fill-rule="evenodd" clip-rule="evenodd" d="M100.483 73.4402L112.254 96.5481L91.9986 110.16L78.226 90.8279L100.483 73.4402Z" fill="#FFFFA0"/>
  <mask id="mask0" mask-type="alpha" maskUnits="userSpaceOnUse" x="1" y="0" width="178" height="122">
    <path fill-rule="evenodd" clip-rule="evenodd" d="M178.857 0.435547H1.41341V121.669H178.857V0.435547Z" fill="white"/>
  </mask>
  <g mask="url(#mask0)">
    <path fill-rule="evenodd" clip-rule="evenodd" d="M20.8459 11.3107C21.2596 11.4558 21.5646 11.5494 21.8591 11.6699C27.9703 14.1584 33.5018 17.646 38.7985 21.535C39.0801 21.7409 39.2963 22.1866 39.3372 22.5435C39.6294 25.1431 39.8947 27.7474 40.1203 30.3541C40.5656 35.5078 41.0529 40.6591 41.3766 45.8198C41.5578 48.7072 41.4888 51.6134 41.4526 54.5102C41.4082 57.8914 41.2598 61.2714 41.1955 64.6537C41.1826 65.3089 40.9349 65.6096 40.319 65.7289C38.5332 66.0764 36.7661 66.5479 34.9674 66.7912C28.3396 67.6874 21.6721 67.7038 15.0011 67.5447C13.9598 67.5201 12.9208 67.4604 11.8304 67.4148C14.8445 48.6581 17.8352 30.0452 20.8459 11.3107ZM157.828 52.1504C157.807 52.2147 157.786 52.2803 157.765 52.3434C157.343 52.2767 156.92 52.2077 156.497 52.1387C149.646 51.0366 142.803 49.8842 135.941 48.8558C133.529 48.4931 131.244 47.8531 129.051 46.8142C128.282 46.4492 127.502 46.0853 126.69 45.835C118.096 43.1756 110.2 44.5071 103.293 50.3428C94.8009 57.517 92.3887 69.6904 97.3838 79.8339C101.127 87.434 105.033 94.9533 108.85 102.516C109.163 103.139 109.452 103.81 109.579 104.49C110.119 107.381 108.497 110.352 105.831 111.479C103.089 112.637 99.7773 111.743 98.023 109.318C90.9593 99.5465 83.9108 89.7668 76.8576 79.9883C76.0091 78.8125 74.8977 78.0778 73.4508 77.8403C69.9248 77.2635 66.5893 76.1053 63.6406 74.0871C57.3775 69.8004 52.9212 64.3718 52.3263 56.3599C51.6882 47.7666 50.8023 39.1931 50.0204 30.6115C49.8358 28.5699 49.6371 26.5295 49.4408 24.4517C49.6453 24.4201 49.7844 24.3779 49.9235 24.3791C55.3591 24.4095 60.7948 24.4435 66.2293 24.4809C76.9535 24.5534 87.6788 24.6283 98.4017 24.7067C101.369 24.7289 104.383 24.4423 107.294 24.8588C115.071 25.9726 122.724 27.7369 130.156 30.3436C132.313 31.0994 134.501 31.8575 136.276 33.389C140.103 36.6953 143.911 40.0238 147.725 43.3453C151.094 46.2795 154.461 49.215 157.828 52.1504ZM48.3784 72.5743C50.4517 75.4548 52.7798 77.9725 55.4982 80.1182C59.5992 83.352 64.1864 85.5761 69.2493 86.8419C69.6841 86.9508 70.1667 87.2538 70.4274 87.613C77.0072 96.6789 83.566 105.76 90.1155 114.848C92.4226 118.052 95.4414 120.273 99.2794 121.152C105.777 122.638 111.429 120.949 115.64 115.745C119.863 110.527 120.545 104.595 117.599 98.5275C113.863 90.8303 109.829 83.2759 106.045 75.5987C102.527 68.4572 104.95 60.1178 111.63 56.1832C115.675 53.8 119.945 53.4654 124.324 55.2847C125.87 55.927 127.399 56.6126 128.953 57.235C129.548 57.4737 130.179 57.6527 130.811 57.7556C143.522 59.8148 156.236 61.8669 168.951 63.8968C170.709 64.1787 172.483 64.5005 174.254 64.525C177.397 64.5683 179.626 61.4668 178.608 58.4904C178.293 57.5661 177.648 56.6395 176.909 55.9937C165.934 46.3919 154.854 36.9094 143.944 27.235C140.145 23.8655 135.718 21.9608 131.035 20.441C123.717 18.066 116.213 16.4644 108.616 15.3482C106.137 14.9844 103.574 15.1692 101.05 15.1458C89.5043 15.0405 77.9597 14.9469 66.414 14.8557C59.8038 14.8019 53.1935 14.7738 46.5821 14.6837C46.0281 14.6755 45.3982 14.39 44.9377 14.0507C38.9317 9.62713 32.6732 5.6212 25.7147 2.86595C23.216 1.87734 20.5841 1.16249 17.9568 0.574004C15.007 -0.0858513 12.6333 1.65972 12.153 4.63843C8.58838 26.7483 5.03314 48.8616 1.48961 70.975C1.00926 73.9642 2.84064 76.4504 5.83371 76.6797C16.6946 77.5115 27.5519 77.797 38.3579 75.9859C41.8535 75.4009 45.2474 74.4778 48.3784 72.5743Z" fill="#000050"/>
  </g>
  <path d="M209 191.612H53.5392" stroke="#000050" stroke-width="11"/>
  <mask id="mask1" mask-type="alpha" maskUnits="userSpaceOnUse" x="84" y="111" width="51" height="67">
    <path fill-rule="evenodd" clip-rule="evenodd" d="M84 111H135V178H84V111Z" fill="white"/>
  </mask>
  <g mask="url(#mask1)">
    <path fill-rule="evenodd" clip-rule="evenodd" d="M84.0589 150.698C95.6918 139.703 108.85 127.063 122.317 111L128.9 117.494C124.097 123.171 119.186 128.57 114.488 133.519C116.687 133.129 118.8 132.977 120.787 133.087C125.04 133.32 128.594 134.77 131.162 137.302C131.505 137.64 131.829 137.998 132.135 138.375C136.869 144.177 135.732 151.714 128.755 160.773C123.933 167.037 117.186 173.072 111.618 178L105.057 171.529C112.587 164.868 129.567 149.757 124.937 144.079C124.01 142.949 122.456 142.314 120.301 142.196C112.336 141.758 102.154 146.155 90.5506 157.218L84 150.756" fill="#000050"/>
  </g>
</svg>
