<svg width="207" height="148" viewBox="0 0 207 148" fill="none"
  xmlns="http://www.w3.org/2000/svg">
  <path fill-rule="evenodd" clip-rule="evenodd" d="M205 2H196.364L169 91H177.645L205 2V2Z" stroke="#010050" stroke-width="3"/>
  <path fill-rule="evenodd" clip-rule="evenodd" d="M11.6432 2H3L30.3568 91H39L11.6432 2V2Z" stroke="#010050" stroke-width="3"/>
  <path fill-rule="evenodd" clip-rule="evenodd" d="M185.085 93H164.362V94.4601C164.362 95.9352 163.182 97.131 161.727 97.131H161.332C159.876 97.131 158.696 95.9352 158.696 94.4601V93H151.862V94.4601C151.862 95.9352 150.682 97.131 149.226 97.131H148.831C147.375 97.131 146.196 95.9352 146.196 94.4601V93H139.352V94.4601C139.352 95.9352 138.172 97.131 136.717 97.131H136.322C134.866 97.131 133.686 95.9352 133.686 94.4601V93H126.755V94.4601C126.755 95.9352 125.575 97.131 124.12 97.131H123.733C122.278 97.131 121.098 95.9352 121.098 94.4601V93H114.255V94.4601C114.255 95.9352 113.075 97.131 111.619 97.131H111.224C109.768 97.131 108.589 95.9352 108.589 94.4601V93H101.745V94.4601C101.745 95.9352 100.565 97.131 99.1099 97.131H98.7146C97.2591 97.131 96.0792 95.9352 96.0792 94.4601V93H89.1569V94.4601C89.1569 95.9352 87.977 97.131 86.5215 97.131H86.1262C84.6707 97.131 83.4908 95.9352 83.4908 94.4601V93H76.6212V94.4601C76.6212 95.9352 75.4413 97.131 73.9858 97.131H73.5905C72.135 97.131 70.9551 95.9352 70.9551 94.4601V93H64.0855V94.4601C64.0855 95.9352 62.9056 97.131 61.4501 97.131H61.0548C59.5993 97.131 58.4194 95.9352 58.4194 94.4601V93H51.5586V94.4601C51.5586 95.9352 50.3787 97.131 48.9232 97.131H48.5279C47.0725 97.131 45.8925 95.9352 45.8925 94.4601V93H24.9236C19.6327 92.9976 14.5584 95.1291 10.8205 98.9241C7.08259 102.719 4.98838 107.866 5.00005 113.228V125.817C5.00005 131.171 7.09941 136.306 10.8361 140.092C14.5727 143.877 19.6404 146.002 24.9236 146H185.085C190.367 146 195.432 143.874 199.167 140.088C202.902 136.303 205 131.17 205 125.817V113.228C205.012 107.867 202.919 102.722 199.183 98.9273C195.447 95.1325 190.375 93 185.085 93Z" stroke="#000050" stroke-width="3" stroke-linecap="round" stroke-linejoin="round"/>
  <path fill-rule="evenodd" clip-rule="evenodd" d="M119.5 122.5V128.5H102.5V122.5H119.5Z" stroke="#010050" stroke-width="3"/>
  <path fill-rule="evenodd" clip-rule="evenodd" d="M140.5 122.5V128.5H123.5V122.5H140.5Z" stroke="#010050" stroke-width="3"/>
  <path fill-rule="evenodd" clip-rule="evenodd" d="M160 122V128H144V122H160Z" stroke="#010050" stroke-width="3"/>
  <path fill-rule="evenodd" clip-rule="evenodd" d="M119.5 110.5V116.5H102.5V110.5H119.5Z" stroke="#010050" stroke-width="3"/>
  <rect x="140.5" y="110.5" width="6" height="17" transform="rotate(90 140.5 110.5)" stroke="#010050" stroke-width="3"/>
  <path fill-rule="evenodd" clip-rule="evenodd" d="M160 110V116H144V110H160Z" stroke="#010050" stroke-width="3"/>
  <ellipse cx="47.5" cy="117.5" rx="5.5" ry="4.5" stroke="#010050" stroke-width="3"/>
</svg>
