<svg width="199" height="176" viewBox="0 0 199 176" fill="none"
  xmlns="http://www.w3.org/2000/svg">
  <path fill-rule="evenodd" clip-rule="evenodd" d="M151.497 38.717C151.017 38.6652 150.537 38.6398 150.059 38.6398C146.473 38.6398 142.964 40.0855 139.83 42.8689C138.365 44.1712 136.996 45.7413 135.738 47.54C135.515 40.8052 135.122 33.6067 134.456 26.2883H125.264C127.231 46.912 126.99 64.9156 126.65 80.7067H126.652C126.651 80.7339 126.65 80.7611 126.65 80.7883H135.798C136.069 64.971 140.066 54.822 145.94 49.6074C147.527 48.1971 149.062 47.5654 150.509 47.717C157.76 48.4965 156.6 70.889 156.057 80.7883H165.219C165.619 73.4655 166.058 64.5462 164.992 56.8023C163.45 45.5988 158.909 39.5147 151.497 38.717Z" fill="#000050"/>
  <mask id="mask0" mask-type="alpha" maskUnits="userSpaceOnUse" x="90" y="0" width="109" height="109">
    <path fill-rule="evenodd" clip-rule="evenodd" d="M90 0.25708H198.742V109H90V0.25708Z" fill="white"/>
  </mask>
  <g mask="url(#mask0)">
    <path fill-rule="evenodd" clip-rule="evenodd" d="M144.371 0.256836C114.342 0.256836 90 24.6002 90 54.6279C90 84.6573 114.342 109 144.371 109C174.4 109 198.742 84.6573 198.742 54.6279C198.742 24.6002 174.4 0.256836 144.371 0.256836ZM144.371 8.43184C169.844 8.43184 190.567 29.1555 190.567 54.6279C190.567 80.1012 169.844 100.825 144.371 100.825C118.899 100.825 98.175 80.1012 98.175 54.6279C98.175 29.1555 118.899 8.43184 144.371 8.43184Z" fill="#000050"/>
  </g>
  <path fill-rule="evenodd" clip-rule="evenodd" d="M10.0264 100.958L30.3646 100.956C39.4973 100.953 48.6291 100.952 57.7619 100.961C67.761 100.97 76.9783 107.219 80.6956 116.512C80.7951 116.759 80.8749 117.01 80.9697 117.322L82.1515 121.008L71.5572 121.006C66.8824 121.003 62.2067 121.002 57.53 121.014C55.003 121.019 53.012 122.728 52.5717 125.264C52.1822 127.512 53.5808 129.864 55.7549 130.62C56.3641 130.833 57.1498 130.944 58.0266 130.946C73.8092 130.964 89.5955 130.964 105.379 130.965L125.204 130.967C135.171 130.969 144.412 137.173 148.197 146.401C148.31 146.677 148.403 146.965 148.504 147.293L149.697 150.956H10.0264V100.958ZM154.48 160.974C154.732 160.977 154.984 160.978 155.233 160.971C157.566 160.915 159.495 159.383 159.817 157.327C160.075 155.699 160.06 153.799 159.773 151.522C157.579 134.127 142.682 121.009 125.123 121.008H92.3666L91.7977 118.713C91.7255 118.424 91.6588 118.154 91.5959 117.885C87.857 102.056 73.8786 91.0011 57.6004 91.0021L13.3917 91.003C13.0951 91.003 12.7965 90.973 12.4877 90.9383L9.95881 90.699L9.96257 86.0007C9.9682 84.2567 9.97196 82.5445 9.95224 80.8343C9.92877 78.7497 8.55168 76.9081 6.52594 76.2513C4.45889 75.5806 2.21255 76.2861 1.05981 77.9663C0.763174 78.3988 0.517231 79.0217 0.257208 79.6794C0.172723 79.8952 0.0882391 80.1091 0 80.322V171.8C0.47405 173.327 0.99973 174.207 1.77417 174.798C3.52581 176.137 5.21737 176.351 7.09292 175.47C8.98255 174.584 9.88559 173.158 9.93347 170.981C9.97008 169.304 9.96163 167.641 9.95224 165.881C9.94755 165.09 9.94379 164.291 9.94379 163.483V160.958L154.48 160.974Z" fill="#000050"/>
</svg>
