<?xml version="1.0" encoding="UTF-8" standalone="no"?>
<!DOCTYPE svg PUBLIC "-//W3C//DTD SVG 1.1//EN" "http://www.w3.org/Graphics/SVG/1.1/DTD/svg11.dtd">
<svg width="100%" height="100%" viewBox="0 0 202 201" version="1.1" xmlns="http://www.w3.org/2000/svg" xmlns:xlink="http://www.w3.org/1999/xlink" xml:space="preserve" xmlns:serif="http://www.serif.com/" style="fill-rule:evenodd;clip-rule:evenodd;stroke-linecap:round;stroke-linejoin:round;">
    <path d="M34.5,131C15.998,131 1,145.998 1,164.5C1,183.002 15.998,198 34.5,198C53.002,198 68,183.002 68,164.5C68,145.998 53.002,131 34.5,131ZM34.5,139.897C48.066,139.897 59.102,150.934 59.102,164.5C59.102,178.065 48.066,189.103 34.5,189.103C20.934,189.103 9.898,178.065 9.898,164.5C9.898,150.934 20.934,139.897 34.5,139.897Z" style="fill:rgb(0,0,80);"/>
    <path d="M59,145L137,58" style="fill:none;fill-rule:nonzero;stroke:rgb(0,0,80);stroke-width:11px;"/>
    <path d="M159.5,3C140.998,3 126,17.998 126,36.5C126,55.002 140.998,70 159.5,70C178.001,70 193,55.002 193,36.5C193,17.998 178.001,3 159.5,3ZM159.5,11.897C173.066,11.897 184.102,22.934 184.102,36.5C184.102,50.065 173.066,61.103 159.5,61.103C145.934,61.103 134.898,50.065 134.898,36.5C134.898,22.934 145.934,11.897 159.5,11.897Z" style="fill:rgb(0,0,80);"/>
    <path d="M51.373,63L51.468,63C75.14,63 93,53.067 93,39.896L93,22.62C93,20.069 90.933,18 88.385,18C85.837,18 83.77,20.069 83.77,22.62L83.77,39.896C83.77,46.44 69.954,53.759 51.463,53.759C47.304,53.798 42.762,53.334 38.53,52.478C36.079,51.947 33.603,53.582 33.092,56.087C32.587,58.591 34.204,61.027 36.704,61.533C41.499,62.507 46.439,63 51.373,63Z" style="fill:rgb(0,0,80);"/>
    <g>
        <path d="M52.042,9.653C33.525,9.653 19.689,16.995 19.689,23.559C19.689,30.123 33.525,37.465 52.042,37.465C70.56,37.465 84.396,30.123 84.396,23.559C84.396,16.995 70.56,9.653 52.042,9.653ZM52.042,46.735C28.331,46.735 10.445,36.771 10.445,23.559C10.445,10.347 28.331,0.382 52.042,0.382C75.753,0.382 93.64,10.347 93.64,23.559C93.64,36.771 75.753,46.735 52.042,46.735Z" style="fill:rgb(0,0,80);"/>
    </g>
    <path d="M51.627,63L51.531,63C27.859,63 10,53.067 10,39.896L10,22.62C10,20.069 12.066,18 14.615,18C17.163,18 19.23,20.069 19.23,22.62L19.23,39.896C19.23,46.44 33.046,53.759 51.536,53.759C55.695,53.798 60.239,53.334 64.47,52.478C66.921,51.947 69.397,53.582 69.908,56.087C70.413,58.591 68.796,61.027 66.296,61.533C61.501,62.507 56.561,63 51.627,63Z" style="fill:rgb(0,0,80);"/>
    <path d="M66,166.5L122,166.5" style="fill:none;fill-rule:nonzero;stroke:rgb(0,0,80);stroke-width:11px;"/>
    <path d="M94,35.5L129,35.5" style="fill:none;fill-rule:nonzero;stroke:rgb(0,0,80);stroke-width:11px;"/>
    <g>
        <path d="M127.589,103.341C127.589,109.905 141.424,117.248 159.943,117.248C178.461,117.248 192.297,109.905 192.297,103.341C192.297,96.778 178.461,89.435 159.943,89.435C141.424,89.435 127.589,96.778 127.589,103.341ZM118.346,103.341C118.346,90.13 136.231,80.164 159.943,80.164C183.653,80.164 201.54,90.13 201.54,103.341C201.54,116.553 183.653,126.518 159.943,126.518C136.231,126.518 118.346,116.553 118.346,103.341Z" style="fill:rgb(0,0,80);"/>
    </g>
    <g>
        <path d="M159.861,201L159.957,201C183.659,201 201.541,191.045 201.541,177.844L201.541,104.714C201.541,102.158 199.472,100.084 196.92,100.084C194.369,100.084 192.299,102.158 192.299,104.714L192.299,177.844C192.299,184.403 178.466,191.738 159.952,191.738C155.788,191.778 151.238,191.312 147.003,190.454C144.548,189.922 142.069,191.561 141.557,194.071C141.052,196.58 142.671,199.022 145.174,199.529C149.975,200.505 154.921,201 159.861,201Z" style="fill:rgb(0,0,80);"/>
    </g>
    <g>
        <path d="M159.861,182.906L159.957,182.906C183.659,182.906 201.541,172.785 201.541,159.364C201.541,156.766 199.472,154.656 196.92,154.656C194.369,154.656 192.299,156.766 192.299,159.364C192.299,166.032 178.466,173.49 159.952,173.49C155.788,173.694 151.238,173.057 147.003,172.184C144.548,171.648 142.069,173.312 141.557,175.863C141.052,178.413 142.671,180.896 145.174,181.41C149.975,182.404 154.921,182.906 159.861,182.906Z" style="fill:rgb(0,0,80);"/>
    </g>
    <g>
        <path d="M159.861,163.989L159.957,163.989C183.659,163.989 201.541,153.966 201.541,140.676C201.541,138.103 199.472,136.014 196.92,136.014C194.369,136.014 192.299,138.103 192.299,140.676C192.299,147.279 178.466,154.664 159.952,154.664C155.788,154.591 151.238,154.235 147.003,153.371C144.548,152.843 142.069,154.488 141.557,157.014C141.052,159.539 142.671,161.998 145.174,162.508C149.975,163.491 154.921,163.989 159.861,163.989Z" style="fill:rgb(0,0,80);"/>
    </g>
    <g>
        <path d="M159.861,146.346L159.957,146.346C183.659,146.346 201.541,136.225 201.541,122.804C201.541,120.205 199.472,118.096 196.92,118.096C194.369,118.096 192.299,120.205 192.299,122.804C192.299,129.472 178.466,136.929 159.952,136.929C155.788,137.021 151.238,136.497 147.003,135.624C144.548,135.094 142.069,136.752 141.557,139.302C141.052,141.853 142.671,144.336 145.174,144.851C149.975,145.843 154.921,146.346 159.861,146.346Z" style="fill:rgb(0,0,80);"/>
    </g>
    <path d="M160.627,201L160.531,201C136.859,201 119,191.148 119,178.083L119,106.582C119,104.053 121.066,102 123.615,102C126.163,102 128.23,104.053 128.23,106.582L128.23,178.083C128.23,184.574 142.046,191.833 160.536,191.833C164.695,191.873 169.239,191.413 173.47,190.563C175.921,190.037 178.397,191.658 178.908,194.143C179.413,196.626 177.796,199.043 175.296,199.544C170.501,200.511 165.561,201 160.627,201Z" style="fill:rgb(0,0,80);"/>
    <path d="M160.627,183L160.531,183C136.859,183 119,172.968 119,159.667C119,157.091 121.066,155 123.615,155C126.163,155 128.23,157.091 128.23,159.667C128.23,166.275 142.046,173.667 160.536,173.667C164.695,173.87 169.239,173.238 173.47,172.372C175.921,171.841 178.397,173.491 178.908,176.019C179.413,178.546 177.796,181.007 175.296,181.517C170.501,182.502 165.561,183 160.627,183Z" style="fill:rgb(0,0,80);"/>
    <path d="M160.627,164L160.531,164C136.859,164 119,153.968 119,140.667C119,138.091 121.066,136 123.615,136C126.163,136 128.23,138.091 128.23,140.667C128.23,147.275 142.046,154.666 160.536,154.666C164.695,154.594 169.239,154.238 173.47,153.372C175.921,152.844 178.397,154.49 178.908,157.019C179.413,159.546 177.796,162.007 175.296,162.517C170.501,163.501 165.561,164 160.627,164Z" style="fill:rgb(0,0,80);"/>
    <path d="M160.627,146L160.531,146C136.859,146 119,135.968 119,122.666C119,120.09 121.066,118 123.615,118C126.163,118 128.23,120.09 128.23,122.666C128.23,129.275 142.046,136.667 160.536,136.667C164.695,136.758 169.239,136.238 173.47,135.373C175.921,134.847 178.397,136.491 178.908,139.018C179.413,141.547 177.796,144.007 175.296,144.518C170.501,145.502 165.561,146 160.627,146Z" style="fill:rgb(0,0,80);"/>
    <path d="M163.587,99.649C163.302,99.634 163.016,99.627 162.732,99.627C160.602,99.627 158.518,100.051 156.655,100.869C155.785,101.25 154.972,101.711 154.224,102.239C154.091,100.262 153.858,98.149 153.462,96L148,96C149.169,102.054 149.026,107.341 148.825,111.976L148.826,111.976C148.826,111.985 148.825,111.992 148.825,112L154.259,112C154.421,107.357 156.795,104.377 160.284,102.846C161.228,102.432 162.14,102.247 163,102.291C167.308,102.52 166.619,109.094 166.296,112L171.74,112C171.977,109.85 172.237,107.232 171.604,104.959C170.688,101.669 167.991,99.882 163.587,99.649Z" style="fill:rgb(0,0,80);"/>
    <path d="M54.587,18.649C54.302,18.634 54.016,18.626 53.732,18.626C51.602,18.626 49.518,19.051 47.655,19.869C46.785,20.25 45.972,20.711 45.224,21.239C45.091,19.262 44.858,17.149 44.462,15L39,15C40.169,21.055 40.026,26.34 39.825,30.976L39.826,30.976C39.826,30.985 39.825,30.992 39.825,31L45.26,31C45.421,26.357 47.795,23.377 51.285,21.846C52.228,21.432 53.14,21.247 54,21.291C58.308,21.52 57.619,28.094 57.297,31L62.74,31C62.977,28.85 63.237,26.232 62.604,23.959C61.688,20.669 58.991,18.883 54.587,18.649Z" style="fill:rgb(0,0,80);"/>
</svg>
