<svg xmlns="http://www.w3.org/2000/svg" viewBox="0 0 83.43 35.37"><defs><style>.cls-1{fill:#414141;}</style></defs><title>Element 35</title><g id="Ebene_2" data-name="Ebene 2"><g id="Ebene_1-2" data-name="Ebene 1"><path class="cls-1" d="M5.72,1.12a4.62,4.62,0,0,1,2,.35A6.3,6.3,0,0,1,9,2.29q.36.27.54.06a1.88,1.88,0,0,0,.27-1h.41c0,.44,0,1,0,1.62s0,1.47,0,2.52H9.77c-.08-.52-.16-.93-.23-1.24a4.19,4.19,0,0,0-.26-.78,3.66,3.66,0,0,0-.41-.65,3.28,3.28,0,0,0-1.4-1.07,4.85,4.85,0,0,0-1.78-.33,3,3,0,0,0-1.6.44A3.82,3.82,0,0,0,2.87,3.15a6.63,6.63,0,0,0-.79,2A11.11,11.11,0,0,0,1.8,7.78a10.31,10.31,0,0,0,.31,2.67,6,6,0,0,0,.85,2,3.78,3.78,0,0,0,1.3,1.2,3.29,3.29,0,0,0,1.61.4,4.8,4.8,0,0,0,1.69-.32,2.87,2.87,0,0,0,1.39-1A3.34,3.34,0,0,0,9.5,11.5a14.09,14.09,0,0,0,.27-1.71h.42c0,1.09,0,2,0,2.64s0,1.23,0,1.68H9.85a2,2,0,0,0-.25-1c-.11-.13-.3-.11-.56,0A8.73,8.73,0,0,1,7.62,14a4.41,4.41,0,0,1-1.91.35,5.68,5.68,0,0,1-3-.77,5.17,5.17,0,0,1-2-2.23A8,8,0,0,1,0,7.85,8,8,0,0,1,.74,4.32,5.77,5.77,0,0,1,2.76,2,5.31,5.31,0,0,1,5.72,1.12Z"/><path class="cls-1" d="M14.36,14.24a2.2,2.2,0,0,1-1.7-.59,2.24,2.24,0,0,1-.53-1.55,2,2,0,0,1,.37-1.26,3.14,3.14,0,0,1,.95-.81,10.29,10.29,0,0,1,1.21-.54l1.22-.44a3.74,3.74,0,0,0,.94-.48.81.81,0,0,0,.37-.69V6.77A2.34,2.34,0,0,0,17,5.62a1.17,1.17,0,0,0-.61-.54A2.47,2.47,0,0,0,15.52,5a3.87,3.87,0,0,0-1,.13,1.41,1.41,0,0,0-.82.52,1.11,1.11,0,0,1,.6.36,1.07,1.07,0,0,1,.25.74.93.93,0,0,1-.29.71,1.08,1.08,0,0,1-.74.26.87.87,0,0,1-.76-.34,1.23,1.23,0,0,1-.24-.74,1.15,1.15,0,0,1,.23-.76,3.11,3.11,0,0,1,.59-.54,4.19,4.19,0,0,1,1.08-.49,4.81,4.81,0,0,1,1.48-.21,4.22,4.22,0,0,1,1.26.17,2.2,2.2,0,0,1,.86.5,2,2,0,0,1,.62,1,7,7,0,0,1,.14,1.48v5a1.2,1.2,0,0,0,.13.64.46.46,0,0,0,.43.2.89.89,0,0,0,.44-.1,3.18,3.18,0,0,0,.37-.27l.2.3q-.39.29-.72.48a2,2,0,0,1-.92.19,1.33,1.33,0,0,1-1.24-.49,2,2,0,0,1-.31-1.11,3,3,0,0,1-1.3,1.27A3.7,3.7,0,0,1,14.36,14.24Zm.8-.72a2,2,0,0,0,1.06-.32,3,3,0,0,0,1-1V8.62a1.74,1.74,0,0,1-.84.63l-1.17.51a3.25,3.25,0,0,0-1,.76,2,2,0,0,0-.43,1.36,1.63,1.63,0,0,0,.41,1.23A1.43,1.43,0,0,0,15.16,13.52Z"/><path class="cls-1" d="M23.45,0V13.18l-.47.4L22.5,14,22,14.4l-.3-.13a2.71,2.71,0,0,0,.1-.51c0-.17,0-.35,0-.53v-11A2,2,0,0,0,21.55,1,1.29,1.29,0,0,0,20.47.59V.22c.38,0,.75.05,1.11.05a8,8,0,0,0,1-.06A5.1,5.1,0,0,0,23.45,0Zm2.81,4.57A3,3,0,0,1,28.71,5.8a5.83,5.83,0,0,1,1,3.69,5.87,5.87,0,0,1-.55,2.7,3.76,3.76,0,0,1-1.46,1.63,3.9,3.9,0,0,1-2,.54,3.31,3.31,0,0,1-1.74-.51,3.11,3.11,0,0,1-1.25-1.52l.36.2A2.92,2.92,0,0,0,25.52,14a1.93,1.93,0,0,0,1.81-1.09,7.25,7.25,0,0,0,.61-3.37,10.25,10.25,0,0,0-.24-2.43A2.83,2.83,0,0,0,27,5.61a1.69,1.69,0,0,0-1.24-.48,2.1,2.1,0,0,0-1.54.75,3.7,3.7,0,0,0-.87,2.18l-.22-.25a3.86,3.86,0,0,1,1.07-2.37A2.87,2.87,0,0,1,26.26,4.59Z"/><path class="cls-1" d="M33.46,14.24a2.19,2.19,0,0,1-1.7-.59,2.24,2.24,0,0,1-.53-1.55,2,2,0,0,1,.37-1.26,3.1,3.1,0,0,1,.94-.81,11.25,11.25,0,0,1,1.22-.54c.42-.15.83-.29,1.21-.44a3.82,3.82,0,0,0,1-.48.84.84,0,0,0,.37-.69V6.77a2.33,2.33,0,0,0-.23-1.15,1.12,1.12,0,0,0-.6-.54A2.49,2.49,0,0,0,34.61,5a3.74,3.74,0,0,0-1,.13,1.41,1.41,0,0,0-.82.52,1.11,1.11,0,0,1,.6.36,1.12,1.12,0,0,1,.25.74.93.93,0,0,1-.29.71,1.08,1.08,0,0,1-.74.26.85.85,0,0,1-.76-.34,1.18,1.18,0,0,1-.25-.74,1.15,1.15,0,0,1,.24-.76,2.83,2.83,0,0,1,.59-.54,4.11,4.11,0,0,1,1.07-.49A4.92,4.92,0,0,1,35,4.59a4.22,4.22,0,0,1,1.26.17,2.27,2.27,0,0,1,.86.5,2,2,0,0,1,.61,1,6.37,6.37,0,0,1,.15,1.48v5a1.32,1.32,0,0,0,.12.64.49.49,0,0,0,.44.2.92.92,0,0,0,.44-.1,4.33,4.33,0,0,0,.37-.27l.19.3a6.42,6.42,0,0,1-.72.48,1.93,1.93,0,0,1-.91.19,1.37,1.37,0,0,1-1.25-.49,2.05,2.05,0,0,1-.3-1.11A3,3,0,0,1,35,13.91,3.62,3.62,0,0,1,33.46,14.24Zm.79-.72a2.07,2.07,0,0,0,1.07-.32,3.12,3.12,0,0,0,1-1V8.62a1.74,1.74,0,0,1-.84.63l-1.17.51a3.14,3.14,0,0,0-1,.76,2,2,0,0,0-.44,1.36,1.64,1.64,0,0,0,.42,1.23A1.4,1.4,0,0,0,34.25,13.52Z"/><path class="cls-1" d="M42.88,0V12.44a1.31,1.31,0,0,0,.31,1,1.61,1.61,0,0,0,1.05.27v.38l-.92,0c-.42,0-.83,0-1.25,0l-1.25,0-.93,0v-.38a1.61,1.61,0,0,0,1-.27,1.31,1.31,0,0,0,.32-1V2.16A2,2,0,0,0,41,1,1.29,1.29,0,0,0,39.89.58V.2c.38,0,.75,0,1.11,0a8,8,0,0,0,1-.06A5.44,5.44,0,0,0,42.88,0Z"/><path class="cls-1" d="M48,0V12.44a1.31,1.31,0,0,0,.32,1,1.61,1.61,0,0,0,1,.27v.38l-.93,0c-.41,0-.83,0-1.25,0l-1.24,0-.93,0v-.38a1.61,1.61,0,0,0,1.05-.27,1.31,1.31,0,0,0,.31-1V2.16A2,2,0,0,0,46.12,1,1.32,1.32,0,0,0,45,.58V.2c.38,0,.75,0,1.11,0a8,8,0,0,0,1-.06A5.1,5.1,0,0,0,48,0Z"/><path class="cls-1" d="M54.5,4.59a3.22,3.22,0,0,1,2.48,1,4.32,4.32,0,0,1,.89,3H51.52l0-.34h4.64A5.7,5.7,0,0,0,56,6.58a2.8,2.8,0,0,0-.57-1.2,1.26,1.26,0,0,0-1-.45A1.86,1.86,0,0,0,53,5.76a4.92,4.92,0,0,0-.76,2.63l0,.07c0,.18,0,.38,0,.59s0,.44,0,.65a5,5,0,0,0,.4,2.11,3.25,3.25,0,0,0,1,1.34,2.3,2.3,0,0,0,1.33.46,2.87,2.87,0,0,0,1.49-.4,3,3,0,0,0,1.15-1.4l.36.14a3.6,3.6,0,0,1-.65,1.15,3.27,3.27,0,0,1-1.13.91,3.34,3.34,0,0,1-1.58.35,4,4,0,0,1-2.23-.59,3.88,3.88,0,0,1-1.42-1.65,5.62,5.62,0,0,1-.49-2.42A6.72,6.72,0,0,1,50.94,7a4,4,0,0,1,1.42-1.76A3.76,3.76,0,0,1,54.5,4.59Z"/><path class="cls-1" d="M64.84,4.59a1.81,1.81,0,0,1,.85.2,1.52,1.52,0,0,1,.58.51,1.33,1.33,0,0,1,.2.71,1.18,1.18,0,0,1-.28.79.9.9,0,0,1-.74.35,1,1,0,0,1-.67-.25.85.85,0,0,1-.29-.69,1,1,0,0,1,.19-.59,1.53,1.53,0,0,1,.43-.38.44.44,0,0,0-.38-.18,1.82,1.82,0,0,0-1.32.56A4.17,4.17,0,0,0,62.54,7a4,4,0,0,0-.31,1.46v3.82a1.25,1.25,0,0,0,.51,1.18,2.87,2.87,0,0,0,1.39.29v.38l-1.17,0c-.5,0-1,0-1.6,0-.41,0-.81,0-1.21,0l-.91,0v-.38a1.61,1.61,0,0,0,1-.27,1.31,1.31,0,0,0,.32-1V6.8a2,2,0,0,0-.29-1.19,1.26,1.26,0,0,0-1.08-.39V4.84a10.6,10.6,0,0,0,1.11.06,6.45,6.45,0,0,0,1-.07,4.55,4.55,0,0,0,.88-.19V6.89a5.12,5.12,0,0,1,.56-1A3.76,3.76,0,0,1,63.68,5,2,2,0,0,1,64.84,4.59Z"/><path class="cls-1" d="M71.3,4.59a4.28,4.28,0,0,1,2.07.5,3.6,3.6,0,0,1,1.46,1.59,6.14,6.14,0,0,1,.55,2.81,6,6,0,0,1-.55,2.79,3.57,3.57,0,0,1-1.46,1.58,4.51,4.51,0,0,1-4.13,0,3.61,3.61,0,0,1-1.48-1.58,6,6,0,0,1-.55-2.79,6.14,6.14,0,0,1,.55-2.81,3.64,3.64,0,0,1,1.48-1.59A4.27,4.27,0,0,1,71.3,4.59Zm0,.36A1.94,1.94,0,0,0,69.61,6,7,7,0,0,0,69,9.49,6.93,6.93,0,0,0,69.61,13,1.88,1.88,0,0,0,73,13a6.8,6.8,0,0,0,.66-3.46A6.89,6.89,0,0,0,73,6,1.94,1.94,0,0,0,71.3,5Z"/><path class="cls-1" d="M80,4.59a3,3,0,0,1,1.23.23,3.49,3.49,0,0,1,.74.44c.39.32.63.1.72-.65h.41c0,.33,0,.73,0,1.19s0,1.09,0,1.87h-.42a5.36,5.36,0,0,0-.37-1.3,2.46,2.46,0,0,0-.76-1,2,2,0,0,0-1.31-.41,1.63,1.63,0,0,0-1.06.35,1.29,1.29,0,0,0-.42,1,1.39,1.39,0,0,0,.32.92,3.62,3.62,0,0,0,.85.72L81,8.69A12.68,12.68,0,0,1,82.71,10a2.38,2.38,0,0,1,.72,1.8A2.18,2.18,0,0,1,83,13.23a2.84,2.84,0,0,1-1.13.85,4,4,0,0,1-1.52.28,4.56,4.56,0,0,1-.75-.06,3.19,3.19,0,0,1-.67-.19l-.37-.21-.37-.27c-.12-.1-.23-.1-.32,0a1.24,1.24,0,0,0-.22.61h-.41c0-.39,0-.85.05-1.41s0-1.28,0-2.19h.41a11.56,11.56,0,0,0,.36,1.76,2.47,2.47,0,0,0,.74,1.18,2.16,2.16,0,0,0,1.41.42,1.85,1.85,0,0,0,1.07-.37,1.56,1.56,0,0,0,.53-1.34A1.62,1.62,0,0,0,81.25,11a10.9,10.9,0,0,0-1.46-1.06c-.43-.28-.83-.56-1.21-.83a3.89,3.89,0,0,1-.92-.94,2.25,2.25,0,0,1-.35-1.26,2.17,2.17,0,0,1,.37-1.32,2.13,2.13,0,0,1,1-.76A3.58,3.58,0,0,1,80,4.59Z"/><path class="cls-1" d="M20,19.12a4.62,4.62,0,0,1,2,.35,6.3,6.3,0,0,1,1.36.82c.23.18.42.2.54.06a1.81,1.81,0,0,0,.26-1h.42c0,.44,0,1,0,1.62s0,1.47,0,2.52h-.42c-.08-.52-.16-.93-.23-1.24a4.19,4.19,0,0,0-.26-.78,3.66,3.66,0,0,0-.41-.65,3.28,3.28,0,0,0-1.4-1.07A4.89,4.89,0,0,0,20,19.44a3,3,0,0,0-1.6.44,3.82,3.82,0,0,0-1.22,1.27,6.63,6.63,0,0,0-.79,2,11.11,11.11,0,0,0-.28,2.63,10.31,10.31,0,0,0,.31,2.67,6,6,0,0,0,.85,1.95,3.78,3.78,0,0,0,1.3,1.2,3.29,3.29,0,0,0,1.61.4,4.8,4.8,0,0,0,1.69-.32,2.8,2.8,0,0,0,1.38-1,3,3,0,0,0,.55-1.14,12.1,12.1,0,0,0,.28-1.71h.42c0,1.09,0,2,0,2.64s0,1.23,0,1.68h-.42a1.87,1.87,0,0,0-.24-1c-.11-.13-.3-.11-.56.05a8.73,8.73,0,0,1-1.42.82,4.44,4.44,0,0,1-1.91.35,5.65,5.65,0,0,1-3-.77,5.17,5.17,0,0,1-2-2.23,8,8,0,0,1-.71-3.51A7.84,7.84,0,0,1,15,22.32a5.77,5.77,0,0,1,2-2.36A5.31,5.31,0,0,1,20,19.12Z"/><path class="cls-1" d="M28.66,32.24a2.2,2.2,0,0,1-1.7-.59,2.24,2.24,0,0,1-.53-1.55,2,2,0,0,1,.37-1.26,3.22,3.22,0,0,1,.94-.81A11.25,11.25,0,0,1,29,27.49c.43-.15.83-.29,1.21-.44a3.82,3.82,0,0,0,.95-.48.81.81,0,0,0,.37-.69V24.77a2.33,2.33,0,0,0-.23-1.15,1.12,1.12,0,0,0-.6-.54,2.49,2.49,0,0,0-.85-.13,3.74,3.74,0,0,0-1,.13,1.41,1.41,0,0,0-.82.52,1.11,1.11,0,0,1,.6.36,1.12,1.12,0,0,1,.25.74.93.93,0,0,1-.29.71,1.08,1.08,0,0,1-.74.26.85.85,0,0,1-.76-.34,1.24,1.24,0,0,1-.25-.74,1.15,1.15,0,0,1,.24-.76,2.83,2.83,0,0,1,.59-.54,4.28,4.28,0,0,1,1.07-.49,4.92,4.92,0,0,1,1.49-.21,4.22,4.22,0,0,1,1.26.17,2.27,2.27,0,0,1,.86.5,2,2,0,0,1,.61,1,6.37,6.37,0,0,1,.15,1.48v5a1.32,1.32,0,0,0,.12.64.49.49,0,0,0,.44.2.92.92,0,0,0,.44-.1,4.33,4.33,0,0,0,.37-.27l.19.3a6.42,6.42,0,0,1-.72.48,1.93,1.93,0,0,1-.91.19,1.37,1.37,0,0,1-1.25-.49,2.05,2.05,0,0,1-.3-1.11,3,3,0,0,1-1.31,1.27A3.62,3.62,0,0,1,28.66,32.24Zm.79-.72a2.07,2.07,0,0,0,1.07-.32,3.12,3.12,0,0,0,1-1.05V26.62a1.74,1.74,0,0,1-.84.63l-1.17.51a3.14,3.14,0,0,0-1,.76A2,2,0,0,0,28,29.88a1.64,1.64,0,0,0,.42,1.23A1.4,1.4,0,0,0,29.45,31.52Z"/><path class="cls-1" d="M38.08,22.64V33.7a1.07,1.07,0,0,0,.46,1A2.57,2.57,0,0,0,39.8,35v.38l-1.09,0-1.5,0-1.1,0-.84,0V35a1.46,1.46,0,0,0,.92-.23,1.14,1.14,0,0,0,.27-.88V24.8a2,2,0,0,0-.29-1.19,1.26,1.26,0,0,0-1.08-.39v-.38a10.65,10.65,0,0,0,1.12.06,6.32,6.32,0,0,0,1-.07A4.55,4.55,0,0,0,38.08,22.64ZM41,22.59a3,3,0,0,1,2.38,1.14,5.05,5.05,0,0,1,1,3.32,7.66,7.66,0,0,1-.42,2.52,4.54,4.54,0,0,1-1.32,2,3.5,3.5,0,0,1-2.38.78A2.68,2.68,0,0,1,38.72,32a2,2,0,0,1-.84-1l.18-.25a2.29,2.29,0,0,0,.73.85A2,2,0,0,0,40,32a2,2,0,0,0,1.56-.63,3.65,3.65,0,0,0,.78-1.68,11.15,11.15,0,0,0,.23-2.33A9.57,9.57,0,0,0,42.32,25a2.81,2.81,0,0,0-.7-1.37,1.58,1.58,0,0,0-1.15-.45,2.19,2.19,0,0,0-1.6.73,3.73,3.73,0,0,0-.92,2.2l-.21-.25a3.81,3.81,0,0,1,1.08-2.37A3,3,0,0,1,41,22.59Z"/><path class="cls-1" d="M48.66,22.64v7.8a1.31,1.31,0,0,0,.32,1,1.61,1.61,0,0,0,1.05.27v.38l-.93,0c-.41,0-.83,0-1.25,0l-1.24,0-.94,0v-.38a1.65,1.65,0,0,0,1.06-.27,1.31,1.31,0,0,0,.31-1V24.8a1.93,1.93,0,0,0-.29-1.19,1.26,1.26,0,0,0-1.08-.39v-.38a10.94,10.94,0,0,0,1.12.06,6.45,6.45,0,0,0,1-.07A4.29,4.29,0,0,0,48.66,22.64Zm-.93-4.3a1.18,1.18,0,0,1,1.15,1.15,1.16,1.16,0,0,1-2.31,0,1.18,1.18,0,0,1,1.16-1.15Z"/><path class="cls-1" d="M53.84,19.85v3h2.67v.36H53.84v7a1.78,1.78,0,0,0,.31,1.18,1.08,1.08,0,0,0,.85.35,1.19,1.19,0,0,0,.93-.45,3.58,3.58,0,0,0,.69-1.48l.36.09a4.11,4.11,0,0,1-.71,1.76,1.9,1.9,0,0,1-1.63.72,2.87,2.87,0,0,1-1-.15,2,2,0,0,1-.7-.44,2.21,2.21,0,0,1-.55-1,6.17,6.17,0,0,1-.16-1.53v-6H50.5v-.36h1.72V20.11c.3,0,.59,0,.87-.08A2.84,2.84,0,0,0,53.84,19.85Z"/><path class="cls-1" d="M59.73,32.24a2.19,2.19,0,0,1-1.7-.59,2.24,2.24,0,0,1-.53-1.55,2,2,0,0,1,.37-1.26,3.1,3.1,0,0,1,.94-.81A11.25,11.25,0,0,1,60,27.49c.42-.15.83-.29,1.21-.44a3.82,3.82,0,0,0,.95-.48.84.84,0,0,0,.37-.69V24.77a2.33,2.33,0,0,0-.23-1.15,1.12,1.12,0,0,0-.6-.54,2.49,2.49,0,0,0-.85-.13,3.74,3.74,0,0,0-1,.13,1.38,1.38,0,0,0-.82.52,1.11,1.11,0,0,1,.6.36,1.12,1.12,0,0,1,.25.74.93.93,0,0,1-.29.71,1.08,1.08,0,0,1-.74.26.85.85,0,0,1-.76-.34,1.18,1.18,0,0,1-.25-.74,1.15,1.15,0,0,1,.24-.76,2.83,2.83,0,0,1,.59-.54,4.11,4.11,0,0,1,1.07-.49,4.87,4.87,0,0,1,1.49-.21,4.22,4.22,0,0,1,1.26.17,2.27,2.27,0,0,1,.86.5,2,2,0,0,1,.61,1,6.37,6.37,0,0,1,.15,1.48v5a1.32,1.32,0,0,0,.12.64.49.49,0,0,0,.44.2.92.92,0,0,0,.44-.1,4.33,4.33,0,0,0,.37-.27l.19.3a6.42,6.42,0,0,1-.72.48,1.93,1.93,0,0,1-.91.19,1.37,1.37,0,0,1-1.25-.49,2.05,2.05,0,0,1-.3-1.11,3,3,0,0,1-1.31,1.27A3.62,3.62,0,0,1,59.73,32.24Zm.79-.72a2.07,2.07,0,0,0,1.07-.32,3.12,3.12,0,0,0,1-1.05V26.62a1.74,1.74,0,0,1-.84.63l-1.17.51a3.29,3.29,0,0,0-1,.76,2,2,0,0,0-.43,1.36,1.64,1.64,0,0,0,.42,1.23A1.39,1.39,0,0,0,60.52,31.52Z"/><path class="cls-1" d="M69.14,18V30.44a1.31,1.31,0,0,0,.32,1,1.61,1.61,0,0,0,1.05.27v.38l-.92,0c-.42,0-.83,0-1.25,0l-1.25,0-.93,0v-.38a1.61,1.61,0,0,0,1-.27,1.31,1.31,0,0,0,.32-1V20.16a2,2,0,0,0-.29-1.2,1.32,1.32,0,0,0-1.08-.38V18.2c.38,0,.75.05,1.11.05a8,8,0,0,0,1-.06A5.1,5.1,0,0,0,69.14,18Z"/></g></g></svg>