<?xml version="1.0" encoding="UTF-8" standalone="no"?>
<!DOCTYPE svg PUBLIC "-//W3C//DTD SVG 1.1//EN" "http://www.w3.org/Graphics/SVG/1.1/DTD/svg11.dtd">
<svg width="100%" height="100%" viewBox="0 0 180 77" version="1.1" xmlns="http://www.w3.org/2000/svg" xmlns:xlink="http://www.w3.org/1999/xlink" xml:space="preserve" xmlns:serif="http://www.serif.com/" style="fill-rule:evenodd;clip-rule:evenodd;stroke-linejoin:round;stroke-miterlimit:2;">
    <g transform="matrix(1,0,0,1,0,-11.8447)">
        <g transform="matrix(2.1575,0,0,2.1575,90,50)">
            <g transform="matrix(1,0,0,1,-41.715,-17.685)">
                <clipPath id="_clip1">
                    <rect x="0" y="0" width="83.43" height="35.37"/>
                </clipPath>
                <g clip-path="url(#_clip1)">
                    <g id="Ebene_2">
                        <g id="Ebene_1-2">
                            <path d="M5.72,1.12C6.404,1.087 7.088,1.206 7.72,1.47C8.178,1.691 8.608,1.966 9,2.29C9.24,2.47 9.42,2.49 9.54,2.35C9.722,2.049 9.815,1.702 9.81,1.35L10.22,1.35L10.22,5.49L9.77,5.49C9.69,4.97 9.61,4.56 9.54,4.25C9.479,3.982 9.392,3.721 9.28,3.47C9.167,3.24 9.029,3.022 8.87,2.82C8.51,2.342 8.025,1.972 7.47,1.75C6.903,1.529 6.299,1.417 5.69,1.42C5.126,1.413 4.571,1.566 4.09,1.86C3.588,2.188 3.17,2.63 2.87,3.15C2.5,3.769 2.233,4.445 2.08,5.15C1.882,6.012 1.788,6.895 1.8,7.78C1.786,8.68 1.891,9.577 2.11,10.45C2.269,11.163 2.557,11.841 2.96,12.45C3.292,12.947 3.738,13.358 4.26,13.65C4.754,13.919 5.308,14.056 5.87,14.05C6.448,14.046 7.021,13.938 7.56,13.73C8.114,13.546 8.599,13.197 8.95,12.73C9.215,12.362 9.402,11.943 9.5,11.5C9.625,10.936 9.715,10.365 9.77,9.79L10.19,9.79L10.19,14.11L9.85,14.11C9.855,13.761 9.769,13.416 9.6,13.11C9.49,12.98 9.3,13 9.04,13.11C8.596,13.452 8.121,13.75 7.62,14C7.017,14.257 6.365,14.377 5.71,14.35C4.658,14.376 3.619,14.11 2.71,13.58C1.838,13.05 1.142,12.274 0.71,11.35C0.213,10.252 -0.03,9.055 -0,7.85C-0.025,6.632 0.228,5.425 0.74,4.32C1.191,3.378 1.889,2.576 2.76,2C3.638,1.42 4.668,1.114 5.72,1.12Z" style="fill:rgb(65,65,65);fill-rule:nonzero;"/>
                            <path d="M14.36,14.24C13.735,14.295 13.116,14.08 12.66,13.65C12.294,13.219 12.105,12.665 12.13,12.1C12.108,11.65 12.238,11.206 12.5,10.84C12.759,10.509 13.082,10.234 13.45,10.03C13.841,9.824 14.245,9.644 14.66,9.49L15.88,9.05C16.214,8.935 16.531,8.774 16.82,8.57C17.053,8.419 17.193,8.158 17.19,7.88L17.19,6.77C17.225,6.377 17.159,5.981 17,5.62C16.868,5.373 16.651,5.181 16.39,5.08C16.107,5.002 15.812,4.975 15.52,5C15.182,5 14.846,5.043 14.52,5.13C14.194,5.201 13.903,5.385 13.7,5.65C13.934,5.702 14.144,5.828 14.3,6.01C14.474,6.216 14.563,6.481 14.55,6.75C14.56,7.017 14.454,7.276 14.26,7.46C14.055,7.636 13.79,7.729 13.52,7.72C13.226,7.743 12.939,7.615 12.76,7.38C12.602,7.166 12.518,6.906 12.52,6.64C12.504,6.367 12.586,6.098 12.75,5.88C12.923,5.675 13.121,5.494 13.34,5.34C13.675,5.126 14.039,4.961 14.42,4.85C14.899,4.703 15.399,4.632 15.9,4.64C16.326,4.633 16.751,4.69 17.16,4.81C17.481,4.909 17.775,5.08 18.02,5.31C18.322,5.574 18.538,5.922 18.64,6.31C18.739,6.797 18.786,7.293 18.78,7.79L18.78,12.79C18.763,13.011 18.808,13.233 18.91,13.43C19.005,13.571 19.171,13.648 19.34,13.63C19.493,13.635 19.644,13.601 19.78,13.53C19.91,13.449 20.033,13.359 20.15,13.26L20.35,13.56C20.09,13.753 19.85,13.913 19.63,14.04C19.343,14.175 19.027,14.241 18.71,14.23C18.239,14.301 17.765,14.113 17.47,13.74C17.26,13.408 17.152,13.022 17.16,12.63C16.868,13.177 16.414,13.621 15.86,13.9C15.389,14.117 14.878,14.233 14.36,14.24ZM15.16,13.52C15.536,13.515 15.904,13.404 16.22,13.2C16.628,12.951 16.971,12.608 17.22,12.2L17.22,8.62C17.012,8.911 16.718,9.132 16.38,9.25L15.21,9.76C14.83,9.946 14.491,10.204 14.21,10.52C13.904,10.905 13.751,11.389 13.78,11.88C13.741,12.329 13.889,12.774 14.19,13.11C14.449,13.365 14.796,13.512 15.16,13.52Z" style="fill:rgb(65,65,65);fill-rule:nonzero;"/>
                            <path d="M23.45,0L23.45,13.18L22.98,13.58L22.5,14L22,14.4L21.7,14.27C21.75,14.104 21.783,13.933 21.8,13.76L21.8,2.23C21.851,1.804 21.763,1.372 21.55,1C21.275,0.701 20.874,0.549 20.47,0.59L20.47,0.22C20.85,0.22 21.22,0.27 21.58,0.27C21.914,0.271 22.248,0.251 22.58,0.21C22.876,0.166 23.167,0.095 23.45,0ZM26.26,4.57C27.226,4.561 28.14,5.02 28.71,5.8C29.448,6.882 29.801,8.183 29.71,9.49C29.743,10.421 29.555,11.346 29.16,12.19C28.846,12.866 28.337,13.433 27.7,13.82C27.094,14.177 26.403,14.364 25.7,14.36C25.084,14.355 24.481,14.179 23.96,13.85C23.39,13.492 22.951,12.959 22.71,12.33L23.07,12.53C23.574,13.412 24.504,13.97 25.52,14C26.285,14.028 26.997,13.599 27.33,12.91C27.8,11.852 28.009,10.696 27.94,9.54C27.957,8.723 27.877,7.908 27.7,7.11C27.621,6.551 27.378,6.029 27,5.61C26.67,5.287 26.221,5.114 25.76,5.13C25.164,5.15 24.603,5.423 24.22,5.88C23.701,6.493 23.396,7.258 23.35,8.06L23.13,7.81C23.202,6.92 23.58,6.082 24.2,5.44C24.744,4.891 25.487,4.584 26.26,4.59L26.26,4.57Z" style="fill:rgb(65,65,65);fill-rule:nonzero;"/>
                            <path d="M33.46,14.24C32.835,14.296 32.216,14.081 31.76,13.65C31.394,13.219 31.205,12.665 31.23,12.1C31.208,11.65 31.338,11.206 31.6,10.84C31.856,10.509 32.175,10.234 32.54,10.03C32.936,9.826 33.343,9.646 33.76,9.49C34.18,9.34 34.59,9.2 34.97,9.05C35.325,8.94 35.662,8.778 35.97,8.57C36.199,8.415 36.338,8.157 36.34,7.88L36.34,6.77C36.363,6.373 36.283,5.977 36.11,5.62C35.984,5.372 35.77,5.179 35.51,5.08C35.217,4.999 34.912,4.972 34.61,5C34.272,4.998 33.936,5.042 33.61,5.13C33.284,5.201 32.993,5.385 32.79,5.65C33.024,5.702 33.234,5.828 33.39,6.01C33.559,6.219 33.648,6.481 33.64,6.75C33.65,7.017 33.544,7.276 33.35,7.46C33.145,7.636 32.88,7.729 32.61,7.72C32.315,7.747 32.026,7.618 31.85,7.38C31.685,7.169 31.597,6.908 31.6,6.64C31.587,6.366 31.672,6.097 31.84,5.88C32.01,5.673 32.209,5.491 32.43,5.34C32.761,5.126 33.122,4.961 33.5,4.85C33.983,4.686 34.49,4.598 35,4.59C35.426,4.583 35.851,4.64 36.26,4.76C36.58,4.861 36.874,5.032 37.12,5.26C37.419,5.525 37.631,5.873 37.73,6.26C37.838,6.746 37.888,7.243 37.88,7.74L37.88,12.74C37.866,12.96 37.907,13.18 38,13.38C38.101,13.519 38.269,13.595 38.44,13.58C38.593,13.584 38.744,13.549 38.88,13.48C39.008,13.397 39.132,13.306 39.25,13.21L39.44,13.51C39.211,13.686 38.971,13.846 38.72,13.99C38.437,14.127 38.124,14.192 37.81,14.18C37.337,14.246 36.862,14.06 36.56,13.69C36.356,13.356 36.252,12.971 36.26,12.58C35.989,13.144 35.548,13.609 35,13.91C34.517,14.132 33.991,14.244 33.46,14.24ZM34.25,13.52C34.629,13.513 34.999,13.403 35.32,13.2C35.725,12.948 36.068,12.605 36.32,12.2L36.32,8.62C36.112,8.911 35.818,9.132 35.48,9.25L34.31,9.76C33.929,9.943 33.589,10.202 33.31,10.52C33.001,10.904 32.844,11.388 32.87,11.88C32.835,12.33 32.987,12.775 33.29,13.11C33.545,13.365 33.889,13.512 34.25,13.52Z" style="fill:rgb(65,65,65);fill-rule:nonzero;"/>
                            <path d="M42.88,0L42.88,12.44C42.84,12.802 42.952,13.164 43.19,13.44C43.498,13.649 43.869,13.744 44.24,13.71L44.24,14.09L39.89,14.09L39.89,13.71C40.244,13.733 40.596,13.638 40.89,13.44C41.131,13.166 41.247,12.803 41.21,12.44L41.21,2.16C41.258,1.761 41.185,1.357 41,1C40.72,0.688 40.306,0.531 39.89,0.58L39.89,0.2L41,0.2C41.334,0.201 41.668,0.181 42,0.14C42.297,0.117 42.591,0.071 42.88,-0Z" style="fill:rgb(65,65,65);fill-rule:nonzero;"/>
                            <path d="M48,0L48,12.44C47.963,12.803 48.079,13.166 48.32,13.44C48.614,13.638 48.966,13.733 49.32,13.71L49.32,14.09L44.97,14.09L44.97,13.71C45.341,13.744 45.712,13.649 46.02,13.44C46.258,13.164 46.37,12.802 46.33,12.44L46.33,2.16C46.378,1.761 46.305,1.357 46.12,1C45.835,0.689 45.419,0.533 45,0.58L45,0.2L46.11,0.2C46.444,0.201 46.778,0.181 47.11,0.14C47.41,0.12 47.708,0.073 48,0Z" style="fill:rgb(65,65,65);fill-rule:nonzero;"/>
                            <path d="M54.5,4.59C55.432,4.548 56.338,4.913 56.98,5.59C57.641,6.443 57.959,7.514 57.87,8.59L51.52,8.59L51.52,8.25L56.16,8.25C56.189,7.688 56.135,7.126 56,6.58C55.909,6.14 55.714,5.728 55.43,5.38C55.183,5.085 54.814,4.919 54.43,4.93C53.85,4.968 53.321,5.275 53,5.76C52.503,6.547 52.239,7.459 52.24,8.39L52.24,9.7C52.219,10.424 52.355,11.144 52.64,11.81C52.851,12.336 53.196,12.798 53.64,13.15C54.024,13.438 54.49,13.599 54.97,13.61C55.494,13.615 56.009,13.477 56.46,13.21C56.978,12.873 57.38,12.384 57.61,11.81L57.97,11.95C57.826,12.37 57.606,12.76 57.32,13.1C57.016,13.484 56.63,13.795 56.19,14.01C55.7,14.254 55.157,14.375 54.61,14.36C53.825,14.387 53.049,14.181 52.38,13.77C51.759,13.367 51.266,12.794 50.96,12.12C50.619,11.36 50.452,10.533 50.47,9.7C50.44,8.777 50.6,7.858 50.94,7C51.234,6.289 51.727,5.678 52.36,5.24C52.991,4.811 53.737,4.585 54.5,4.59Z" style="fill:rgb(65,65,65);fill-rule:nonzero;"/>
                            <path d="M64.84,4.59C65.135,4.586 65.427,4.655 65.69,4.79C65.924,4.907 66.124,5.083 66.27,5.3C66.402,5.513 66.472,5.759 66.47,6.01C66.476,6.299 66.377,6.58 66.19,6.8C66.014,7.028 65.738,7.159 65.45,7.15C65.204,7.152 64.965,7.063 64.78,6.9C64.582,6.727 64.475,6.472 64.49,6.21C64.489,5.998 64.556,5.792 64.68,5.62C64.798,5.467 64.944,5.338 65.11,5.24C65.022,5.12 64.879,5.052 64.73,5.06C64.232,5.058 63.755,5.261 63.41,5.62C63.032,6.018 62.736,6.487 62.54,7C62.346,7.463 62.241,7.958 62.23,8.46L62.23,12.28C62.169,12.737 62.366,13.191 62.74,13.46C63.172,13.672 63.65,13.771 64.13,13.75L64.13,14.13L59.24,14.13L59.24,13.75C59.594,13.773 59.946,13.678 60.24,13.48C60.481,13.206 60.597,12.843 60.56,12.48L60.56,6.8C60.59,6.383 60.489,5.967 60.27,5.61C59.994,5.314 59.591,5.169 59.19,5.22L59.19,4.84C59.559,4.879 59.929,4.899 60.3,4.9C60.635,4.903 60.969,4.879 61.3,4.83C61.599,4.796 61.894,4.732 62.18,4.64L62.18,6.89C62.329,6.537 62.516,6.201 62.74,5.89C63,5.541 63.318,5.24 63.68,5C64.014,4.745 64.42,4.601 64.84,4.59Z" style="fill:rgb(65,65,65);fill-rule:nonzero;"/>
                            <path d="M71.3,4.59C72.021,4.58 72.733,4.752 73.37,5.09C74.008,5.458 74.517,6.013 74.83,6.68C75.232,7.56 75.421,8.523 75.38,9.49C75.423,10.451 75.234,11.408 74.83,12.28C74.517,12.944 74.007,13.496 73.37,13.86C72.075,14.527 70.535,14.527 69.24,13.86C68.597,13.497 68.08,12.946 67.76,12.28C67.356,11.408 67.167,10.451 67.21,9.49C67.169,8.523 67.358,7.56 67.76,6.68C68.08,6.012 68.596,5.457 69.24,5.09C69.874,4.753 70.582,4.581 71.3,4.59ZM71.3,4.95C70.587,4.962 69.937,5.367 69.61,6C69.111,7.092 68.901,8.294 69,9.49C68.894,10.693 69.104,11.903 69.61,13C69.922,13.651 70.583,14.067 71.305,14.067C72.027,14.067 72.688,13.651 73,13C73.52,11.925 73.748,10.731 73.66,9.54C73.758,8.322 73.53,7.101 73,6C72.658,5.383 72.006,4.999 71.3,5L71.3,4.95Z" style="fill:rgb(65,65,65);fill-rule:nonzero;"/>
                            <path d="M80,4.59C80.422,4.579 80.841,4.658 81.23,4.82C81.494,4.936 81.742,5.083 81.97,5.26C82.36,5.58 82.6,5.36 82.69,4.61L83.1,4.61L83.1,7.67L82.68,7.67C82.612,7.223 82.488,6.786 82.31,6.37C82.147,5.977 81.886,5.632 81.55,5.37C81.175,5.083 80.711,4.938 80.24,4.96C79.857,4.948 79.481,5.072 79.18,5.31C78.9,5.565 78.746,5.931 78.76,6.31C78.752,6.645 78.866,6.972 79.08,7.23C79.324,7.512 79.611,7.755 79.93,7.95L81,8.69C81.606,9.077 82.178,9.516 82.71,10C83.194,10.47 83.456,11.125 83.43,11.8C83.459,12.312 83.307,12.819 83,13.23C82.701,13.604 82.312,13.896 81.87,14.08C81.386,14.271 80.87,14.366 80.35,14.36C80.099,14.361 79.848,14.341 79.6,14.3C79.37,14.261 79.146,14.198 78.93,14.11L78.56,13.9L78.19,13.63C78.07,13.53 77.96,13.53 77.87,13.63C77.744,13.81 77.668,14.021 77.65,14.24L77.24,14.24C77.24,13.85 77.24,13.39 77.29,12.83C77.34,12.27 77.29,11.55 77.29,10.64L77.7,10.64C77.774,11.235 77.895,11.824 78.06,12.4C78.188,12.856 78.445,13.266 78.8,13.58C79.206,13.881 79.705,14.029 80.21,14C80.597,13.992 80.971,13.862 81.28,13.63C81.664,13.297 81.863,12.796 81.81,12.29C81.829,11.797 81.623,11.322 81.25,11C80.793,10.607 80.305,10.252 79.79,9.94C79.36,9.66 78.96,9.38 78.58,9.11C78.222,8.851 77.911,8.533 77.66,8.17C77.421,7.794 77.299,7.355 77.31,6.91C77.287,6.442 77.417,5.978 77.68,5.59C77.929,5.242 78.278,4.977 78.68,4.83C79.101,4.668 79.549,4.586 80,4.59Z" style="fill:rgb(65,65,65);fill-rule:nonzero;"/>
                            <path d="M20,19.12C20.684,19.087 21.368,19.206 22,19.47C22.486,19.685 22.943,19.96 23.36,20.29C23.59,20.47 23.78,20.49 23.9,20.35C24.082,20.049 24.172,19.701 24.16,19.35L24.58,19.35L24.58,23.49L24.16,23.49C24.08,22.97 24,22.56 23.93,22.25C23.869,21.982 23.782,21.721 23.67,21.47C23.557,21.24 23.419,21.022 23.26,20.82C22.9,20.342 22.415,19.972 21.86,19.75C21.266,19.527 20.634,19.422 20,19.44C19.436,19.433 18.881,19.586 18.4,19.88C17.9,20.203 17.482,20.637 17.18,21.15C16.81,21.769 16.543,22.445 16.39,23.15C16.192,24.012 16.098,24.895 16.11,25.78C16.096,26.68 16.201,27.577 16.42,28.45C16.585,29.145 16.873,29.806 17.27,30.4C17.602,30.897 18.048,31.308 18.57,31.6C19.064,31.869 19.618,32.006 20.18,32C20.758,31.996 21.331,31.888 21.87,31.68C22.423,31.498 22.905,31.149 23.25,30.68C23.512,30.343 23.7,29.955 23.8,29.54C23.934,28.977 24.028,28.406 24.08,27.83L24.5,27.83L24.5,32.15L24.08,32.15C24.095,31.801 24.012,31.454 23.84,31.15C23.73,31.02 23.54,31.04 23.28,31.2C22.833,31.517 22.358,31.792 21.86,32.02C21.257,32.276 20.605,32.396 19.95,32.37C18.898,32.398 17.859,32.131 16.95,31.6C16.078,31.07 15.382,30.294 14.95,29.37C14.451,28.269 14.208,27.069 14.24,25.86C14.214,24.637 14.474,23.424 15,22.32C15.439,21.366 16.131,20.55 17,19.96C17.893,19.386 18.939,19.094 20,19.12Z" style="fill:rgb(65,65,65);fill-rule:nonzero;"/>
                            <path d="M28.66,32.24C28.035,32.295 27.416,32.08 26.96,31.65C26.594,31.219 26.405,30.665 26.43,30.1C26.408,29.65 26.538,29.206 26.8,28.84C27.058,28.512 27.377,28.236 27.74,28.03C28.149,27.825 28.569,27.644 29,27.49C29.43,27.34 29.83,27.2 30.21,27.05C30.548,26.935 30.867,26.774 31.16,26.57C31.393,26.419 31.533,26.158 31.53,25.88L31.53,24.77C31.553,24.373 31.473,23.977 31.3,23.62C31.174,23.372 30.96,23.179 30.7,23.08C30.426,22.988 30.139,22.944 29.85,22.95C29.512,22.948 29.176,22.992 28.85,23.08C28.524,23.151 28.233,23.335 28.03,23.6C28.264,23.652 28.474,23.778 28.63,23.96C28.799,24.169 28.888,24.431 28.88,24.7C28.89,24.967 28.784,25.226 28.59,25.41C28.385,25.586 28.12,25.679 27.85,25.67C27.555,25.697 27.266,25.568 27.09,25.33C26.929,25.117 26.841,24.857 26.84,24.59C26.827,24.316 26.912,24.047 27.08,23.83C27.25,23.623 27.449,23.441 27.67,23.29C28.002,23.078 28.362,22.913 28.74,22.8C29.223,22.654 29.726,22.583 30.23,22.59C30.656,22.583 31.081,22.64 31.49,22.76C31.81,22.861 32.104,23.032 32.35,23.26C32.649,23.525 32.861,23.873 32.96,24.26C33.068,24.746 33.118,25.243 33.11,25.74L33.11,30.74C33.096,30.96 33.137,31.18 33.23,31.38C33.331,31.519 33.499,31.595 33.67,31.58C33.823,31.584 33.974,31.549 34.11,31.48C34.238,31.397 34.362,31.306 34.48,31.21L34.67,31.51C34.441,31.686 34.201,31.846 33.95,31.99C33.667,32.127 33.354,32.192 33.04,32.18C32.567,32.246 32.092,32.06 31.79,31.69C31.586,31.356 31.482,30.971 31.49,30.58C31.196,31.129 30.738,31.573 30.18,31.85C29.708,32.09 29.189,32.223 28.66,32.24ZM29.45,31.52C29.829,31.513 30.199,31.403 30.52,31.2C30.931,30.933 31.274,30.574 31.52,30.15L31.52,26.62C31.312,26.911 31.018,27.132 30.68,27.25L29.51,27.76C29.129,27.943 28.789,28.202 28.51,28.52C28.176,28.893 27.994,29.379 28,29.88C27.965,30.33 28.117,30.775 28.42,31.11C28.692,31.382 29.065,31.531 29.45,31.52Z" style="fill:rgb(65,65,65);fill-rule:nonzero;"/>
                            <path d="M38.08,22.64L38.08,33.7C38.037,34.092 38.214,34.477 38.54,34.7C38.927,34.906 39.361,35.009 39.8,35L39.8,35.38L35.27,35.38L35.27,35C35.594,35.028 35.918,34.947 36.19,34.77C36.4,34.528 36.498,34.208 36.46,33.89L36.46,24.8C36.49,24.383 36.389,23.967 36.17,23.61C35.894,23.314 35.491,23.169 35.09,23.22L35.09,22.84C35.462,22.88 35.836,22.9 36.21,22.9C36.545,22.903 36.879,22.88 37.21,22.83C37.506,22.795 37.797,22.732 38.08,22.64ZM41,22.59C41.926,22.582 42.806,23.003 43.38,23.73C44.095,24.684 44.449,25.86 44.38,27.05C44.382,27.908 44.24,28.759 43.96,29.57C43.707,30.343 43.251,31.034 42.64,31.57C41.97,32.115 41.122,32.392 40.26,32.35C39.723,32.391 39.186,32.269 38.72,32C38.336,31.77 38.04,31.418 37.88,31L38.06,30.75C38.229,31.089 38.48,31.381 38.79,31.6C39.139,31.862 39.564,32.002 40,32C40.587,32.03 41.158,31.799 41.56,31.37C41.96,30.886 42.229,30.308 42.34,29.69C42.498,28.924 42.575,28.143 42.57,27.36C42.585,26.566 42.501,25.773 42.32,25C42.219,24.487 41.976,24.013 41.62,23.63C41.314,23.33 40.898,23.168 40.47,23.18C39.858,23.189 39.278,23.454 38.87,23.91C38.331,24.523 38.008,25.296 37.95,26.11L37.74,25.86C37.81,24.968 38.193,24.128 38.82,23.49C39.393,22.905 40.181,22.58 41,22.59Z" style="fill:rgb(65,65,65);fill-rule:nonzero;"/>
                            <path d="M48.66,22.64L48.66,30.44C48.623,30.803 48.739,31.166 48.98,31.44C49.288,31.649 49.659,31.744 50.03,31.71L50.03,32.09L45.67,32.09L45.67,31.71C46.044,31.743 46.418,31.648 46.73,31.44C46.968,31.164 47.08,30.802 47.04,30.44L47.04,24.8C47.075,24.382 46.973,23.965 46.75,23.61C46.474,23.314 46.071,23.169 45.67,23.22L45.67,22.84C46.042,22.879 46.416,22.899 46.79,22.9C47.125,22.903 47.459,22.879 47.79,22.83C48.086,22.797 48.377,22.733 48.66,22.64ZM47.73,18.34C48.355,18.356 48.864,18.865 48.88,19.49C48.825,20.083 48.321,20.542 47.725,20.542C47.129,20.542 46.625,20.083 46.57,19.49C46.586,18.862 47.101,18.35 47.73,18.34Z" style="fill:rgb(65,65,65);fill-rule:nonzero;"/>
                            <path d="M53.84,19.85L53.84,22.85L56.51,22.85L56.51,23.21L53.84,23.21L53.84,30.21C53.801,30.627 53.911,31.046 54.15,31.39C54.367,31.627 54.679,31.756 55,31.74C55.362,31.739 55.705,31.574 55.93,31.29C56.271,30.856 56.507,30.35 56.62,29.81L56.98,29.9C56.884,30.534 56.641,31.137 56.27,31.66C55.88,32.155 55.269,32.425 54.64,32.38C54.3,32.39 53.962,32.339 53.64,32.23C53.379,32.134 53.14,31.984 52.94,31.79C52.672,31.511 52.483,31.166 52.39,30.79C52.273,30.289 52.219,29.775 52.23,29.26L52.23,23.26L50.5,23.26L50.5,22.9L52.22,22.9L52.22,20.11C52.52,20.11 52.81,20.11 53.09,20.03C53.347,20.004 53.599,19.944 53.84,19.85Z" style="fill:rgb(65,65,65);fill-rule:nonzero;"/>
                            <path d="M59.73,32.24C59.105,32.296 58.486,32.081 58.03,31.65C57.664,31.219 57.475,30.665 57.5,30.1C57.478,29.65 57.608,29.206 57.87,28.84C58.126,28.509 58.445,28.234 58.81,28.03C59.196,27.827 59.593,27.647 60,27.49C60.42,27.34 60.83,27.2 61.21,27.05C61.548,26.935 61.867,26.774 62.16,26.57C62.389,26.415 62.528,26.157 62.53,25.88L62.53,24.77C62.553,24.373 62.473,23.977 62.3,23.62C62.174,23.372 61.96,23.179 61.7,23.08C61.426,22.988 61.139,22.944 60.85,22.95C60.512,22.948 60.176,22.992 59.85,23.08C59.523,23.148 59.231,23.333 59.03,23.6C59.264,23.652 59.474,23.778 59.63,23.96C59.799,24.169 59.888,24.431 59.88,24.7C59.89,24.967 59.784,25.226 59.59,25.41C59.385,25.586 59.12,25.679 58.85,25.67C58.555,25.697 58.266,25.568 58.09,25.33C57.925,25.119 57.837,24.858 57.84,24.59C57.827,24.316 57.912,24.047 58.08,23.83C58.25,23.623 58.449,23.441 58.67,23.29C59.001,23.076 59.362,22.911 59.74,22.8C60.223,22.653 60.725,22.582 61.23,22.59C61.656,22.583 62.081,22.64 62.49,22.76C62.81,22.861 63.104,23.032 63.35,23.26C63.649,23.525 63.861,23.873 63.96,24.26C64.068,24.746 64.118,25.243 64.11,25.74L64.11,30.74C64.096,30.96 64.137,31.18 64.23,31.38C64.331,31.519 64.499,31.595 64.67,31.58C64.823,31.584 64.974,31.549 65.11,31.48C65.238,31.397 65.362,31.306 65.48,31.21L65.67,31.51C65.441,31.686 65.201,31.846 64.95,31.99C64.667,32.127 64.354,32.192 64.04,32.18C63.567,32.246 63.092,32.06 62.79,31.69C62.586,31.356 62.482,30.971 62.49,30.58C62.196,31.129 61.738,31.573 61.18,31.85C60.729,32.08 60.235,32.213 59.73,32.24ZM60.52,31.52C60.899,31.513 61.269,31.403 61.59,31.2C62.001,30.933 62.344,30.574 62.59,30.15L62.59,26.62C62.382,26.911 62.088,27.132 61.75,27.25L60.58,27.76C60.201,27.947 59.861,28.205 59.58,28.52C59.274,28.905 59.121,29.389 59.15,29.88C59.115,30.33 59.267,30.775 59.57,31.11C59.822,31.364 60.162,31.511 60.52,31.52Z" style="fill:rgb(65,65,65);fill-rule:nonzero;"/>
                            <path d="M69.14,18L69.14,30.44C69.103,30.803 69.219,31.166 69.46,31.44C69.768,31.649 70.139,31.744 70.51,31.71L70.51,32.09L66.16,32.09L66.16,31.71C66.514,31.733 66.866,31.638 67.16,31.44C67.401,31.166 67.517,30.803 67.48,30.44L67.48,20.16C67.512,19.739 67.411,19.319 67.19,18.96C66.907,18.676 66.509,18.536 66.11,18.58L66.11,18.2C66.49,18.2 66.86,18.25 67.22,18.25C67.554,18.251 67.888,18.231 68.22,18.19C68.532,18.155 68.84,18.092 69.14,18Z" style="fill:rgb(65,65,65);fill-rule:nonzero;"/>
                        </g>
                    </g>
                </g>
            </g>
        </g>
    </g>
</svg>
